<svg xmlns="http://www.w3.org/2000/svg" xmlns:xlink="http://www.w3.org/1999/xlink" width="1024" zoomAndPan="magnify" viewBox="0 0 768 767.999994" height="1024" preserveAspectRatio="xMidYMid meet" version="1.0"><defs><clipPath id="80b140b13e"><path d="M 64 47 L 709 47 L 709 736.164062 L 64 736.164062 Z M 64 47 " clip-rule="nonzero"/></clipPath></defs><g clip-path="url(#80b140b13e)"><path fill="#171514" d="M 578.972656 736.257812 C 574.734375 736.265625 570.507812 736.0625 566.289062 735.652344 C 562.070312 735.242188 557.882812 734.625 553.726562 733.804688 C 549.570312 732.980469 545.464844 731.953125 541.410156 730.726562 C 537.351562 729.5 533.367188 728.074219 529.449219 726.453125 C 525.535156 724.835938 521.707031 723.027344 517.972656 721.027344 C 514.234375 719.03125 510.601562 716.855469 507.078125 714.5 C 503.554688 712.144531 500.15625 709.621094 496.882812 706.929688 C 493.605469 704.242188 490.46875 701.394531 487.476562 698.394531 L 111.414062 322.097656 C 109.566406 320.230469 107.761719 318.320312 106.007812 316.367188 C 104.25 314.410156 102.542969 312.414062 100.886719 310.378906 C 99.226562 308.339844 97.621094 306.261719 96.0625 304.144531 C 94.507812 302.03125 93.003906 299.875 91.550781 297.6875 C 90.101562 295.496094 88.703125 293.269531 87.359375 291.011719 C 86.019531 288.753906 84.730469 286.464844 83.5 284.140625 C 82.273438 281.820312 81.097656 279.46875 79.984375 277.089844 C 78.867188 274.710938 77.8125 272.304688 76.8125 269.875 C 75.816406 267.445312 74.878906 264.988281 74 262.511719 C 73.125 260.035156 72.308594 257.539062 71.550781 255.023438 C 70.796875 252.503906 70.105469 249.972656 69.472656 247.421875 C 68.839844 244.871094 68.273438 242.304688 67.765625 239.726562 C 67.261719 237.148438 66.820312 234.558594 66.4375 231.957031 C 66.058594 229.355469 65.746094 226.75 65.492188 224.132812 C 65.242188 221.515625 65.054688 218.894531 64.933594 216.269531 C 64.808594 213.644531 64.75 211.019531 64.753906 208.390625 C 64.761719 205.761719 64.832031 203.136719 64.964844 200.511719 C 65.097656 197.886719 65.296875 195.269531 65.558594 192.652344 C 65.820312 190.039062 66.144531 187.433594 66.535156 184.832031 C 66.925781 182.234375 67.378906 179.644531 67.894531 177.070312 C 68.410156 174.492188 68.988281 171.929688 69.632812 169.382812 C 70.273438 166.832031 70.976562 164.304688 71.742188 161.789062 C 72.507812 159.273438 73.335938 156.78125 74.222656 154.308594 C 75.109375 151.835938 76.058594 149.386719 77.066406 146.957031 C 78.074219 144.53125 79.140625 142.128906 80.265625 139.753906 C 81.390625 137.382812 82.570312 135.035156 83.8125 132.71875 C 85.050781 130.402344 86.347656 128.117188 87.699219 125.863281 C 89.050781 123.609375 90.457031 121.390625 91.914062 119.207031 C 93.375 117.023438 94.890625 114.875 96.453125 112.765625 C 98.019531 110.65625 99.636719 108.585938 101.300781 106.554688 C 102.96875 104.523438 104.683594 102.535156 106.449219 100.585938 C 108.210938 98.640625 110.023438 96.738281 111.878906 94.878906 C 113.738281 93.019531 115.636719 91.207031 117.582031 89.445312 C 119.527344 87.679688 121.515625 85.960938 123.546875 84.292969 C 125.578125 82.628906 127.644531 81.011719 129.753906 79.445312 C 131.863281 77.878906 134.007812 76.363281 136.191406 74.902344 C 138.375 73.441406 140.59375 72.035156 142.84375 70.683594 C 145.097656 69.328125 147.378906 68.03125 149.695312 66.792969 C 152.011719 65.550781 154.355469 64.367188 156.726562 63.242188 C 159.101562 62.117188 161.5 61.050781 163.925781 60.042969 C 166.351562 59.035156 168.800781 58.085938 171.269531 57.199219 C 173.742188 56.308594 176.234375 55.484375 178.746094 54.714844 C 181.257812 53.949219 183.789062 53.246094 186.335938 52.605469 C 188.882812 51.960938 191.441406 51.382812 194.019531 50.867188 C 196.59375 50.347656 199.179688 49.894531 201.777344 49.507812 C 204.375 49.117188 206.976562 48.789062 209.589844 48.527344 C 212.203125 48.265625 214.824219 48.066406 217.445312 47.933594 C 220.070312 47.800781 222.691406 47.730469 225.320312 47.722656 C 227.945312 47.71875 230.570312 47.777344 233.195312 47.902344 C 235.816406 48.023438 238.4375 48.210938 241.050781 48.464844 C 243.664062 48.714844 246.269531 49.03125 248.871094 49.410156 C 251.46875 49.789062 254.054688 50.230469 256.632812 50.738281 C 259.210938 51.242188 261.773438 51.8125 264.324219 52.445312 C 266.871094 53.078125 269.40625 53.769531 271.921875 54.527344 C 274.4375 55.28125 276.929688 56.097656 279.40625 56.976562 C 281.882812 57.855469 284.335938 58.792969 286.761719 59.792969 C 289.191406 60.789062 291.597656 61.847656 293.972656 62.960938 C 296.351562 64.078125 298.699219 65.253906 301.019531 66.484375 C 303.339844 67.714844 305.628906 69 307.886719 70.34375 C 310.144531 71.6875 312.367188 73.085938 314.558594 74.539062 C 316.746094 75.992188 318.898438 77.496094 321.011719 79.054688 C 323.128906 80.609375 325.203125 82.21875 327.242188 83.878906 C 329.277344 85.539062 331.273438 87.246094 333.226562 89.003906 C 335.175781 90.761719 337.085938 92.5625 338.949219 94.414062 L 654.6875 410.355469 C 655.375 411.074219 655.984375 411.855469 656.519531 412.699219 C 657.050781 413.539062 657.5 414.421875 657.863281 415.347656 C 658.226562 416.277344 658.496094 417.230469 658.675781 418.210938 C 658.855469 419.191406 658.9375 420.179688 658.925781 421.175781 C 658.914062 422.167969 658.804688 423.15625 658.601562 424.128906 C 658.398438 425.105469 658.101562 426.050781 657.714844 426.96875 C 657.328125 427.886719 656.855469 428.757812 656.300781 429.585938 C 655.746094 430.414062 655.117188 431.179688 654.414062 431.882812 C 653.707031 432.585938 652.945312 433.214844 652.117188 433.773438 C 651.292969 434.328125 650.421875 434.800781 649.503906 435.1875 C 648.585938 435.574219 647.640625 435.871094 646.664062 436.074219 C 645.691406 436.277344 644.707031 436.386719 643.710938 436.398438 C 642.714844 436.410156 641.726562 436.328125 640.75 436.148438 C 639.769531 435.96875 638.816406 435.699219 637.890625 435.335938 C 636.964844 434.972656 636.078125 434.523438 635.238281 433.988281 C 634.398438 433.453125 633.621094 432.84375 632.898438 432.15625 L 317.160156 116.21875 C 315.65625 114.710938 314.113281 113.246094 312.539062 111.8125 C 310.960938 110.382812 309.347656 108.992188 307.703125 107.640625 C 306.058594 106.289062 304.378906 104.980469 302.671875 103.710938 C 300.960938 102.441406 299.222656 101.214844 297.453125 100.03125 C 295.679688 98.847656 293.882812 97.710938 292.058594 96.613281 C 290.230469 95.519531 288.378906 94.46875 286.503906 93.464844 C 284.625 92.460938 282.726562 91.503906 280.800781 90.59375 C 278.875 89.679688 276.929688 88.820312 274.964844 88.003906 C 273 87.1875 271.011719 86.421875 269.007812 85.703125 C 267.003906 84.984375 264.984375 84.316406 262.945312 83.699219 C 260.910156 83.082031 258.859375 82.511719 256.792969 81.996094 C 254.730469 81.476562 252.652344 81.011719 250.566406 80.59375 C 248.476562 80.179688 246.378906 79.816406 244.273438 79.503906 C 242.167969 79.191406 240.058594 78.929688 237.9375 78.722656 C 235.820312 78.511719 233.699219 78.355469 231.570312 78.25 C 229.445312 78.144531 227.320312 78.09375 225.191406 78.09375 C 223.0625 78.09375 220.933594 78.144531 218.808594 78.25 C 216.683594 78.355469 214.558594 78.511719 212.441406 78.71875 C 210.324219 78.929688 208.210938 79.1875 206.105469 79.5 C 204 79.8125 201.902344 80.175781 199.816406 80.59375 C 197.726562 81.007812 195.652344 81.476562 193.585938 81.992188 C 191.519531 82.507812 189.46875 83.078125 187.433594 83.695312 C 185.394531 84.3125 183.375 84.980469 181.371094 85.699219 C 179.367188 86.417969 177.382812 87.183594 175.414062 87.996094 C 173.449219 88.8125 171.503906 89.675781 169.578125 90.585938 C 167.652344 91.496094 165.753906 92.453125 163.875 93.457031 C 161.996094 94.460938 160.144531 95.511719 158.320312 96.605469 C 156.496094 97.703125 154.695312 98.839844 152.925781 100.023438 C 151.15625 101.207031 149.417969 102.433594 147.707031 103.703125 C 145.996094 104.972656 144.320312 106.28125 142.671875 107.632812 C 141.027344 108.984375 139.417969 110.375 137.839844 111.804688 C 136.261719 113.234375 134.71875 114.703125 133.214844 116.210938 C 131.710938 117.714844 130.242188 119.257812 128.8125 120.835938 C 127.382812 122.414062 125.992188 124.027344 124.644531 125.671875 C 123.292969 127.320312 121.984375 128.996094 120.714844 130.707031 C 119.445312 132.417969 118.222656 134.160156 117.039062 135.929688 C 115.855469 137.703125 114.71875 139.5 113.621094 141.328125 C 112.527344 143.15625 111.480469 145.007812 110.476562 146.886719 C 109.472656 148.765625 108.515625 150.667969 107.605469 152.59375 C 106.695312 154.519531 105.832031 156.464844 105.019531 158.433594 C 104.203125 160.398438 103.4375 162.386719 102.71875 164.390625 C 102.003906 166.398438 101.335938 168.417969 100.71875 170.457031 C 100.097656 172.496094 99.53125 174.546875 99.015625 176.613281 C 98.496094 178.679688 98.03125 180.757812 97.613281 182.847656 C 97.199219 184.9375 96.835938 187.035156 96.523438 189.140625 C 96.210938 191.25 95.949219 193.363281 95.742188 195.480469 C 95.53125 197.601562 95.375 199.726562 95.269531 201.851562 C 95.167969 203.980469 95.113281 206.109375 95.113281 208.238281 C 95.113281 210.367188 95.167969 212.496094 95.269531 214.625 C 95.375 216.753906 95.53125 218.875 95.738281 220.996094 C 95.949219 223.117188 96.207031 225.230469 96.519531 227.335938 C 96.832031 229.441406 97.195312 231.542969 97.613281 233.628906 C 98.027344 235.71875 98.492188 237.796875 99.011719 239.863281 C 99.527344 241.929688 100.09375 243.980469 100.714844 246.019531 C 101.332031 248.058594 102 250.082031 102.714844 252.085938 C 103.433594 254.09375 104.199219 256.078125 105.011719 258.046875 C 105.828125 260.015625 106.6875 261.960938 107.597656 263.886719 C 108.507812 265.8125 109.464844 267.714844 110.46875 269.59375 C 111.472656 271.472656 112.523438 273.324219 113.617188 275.152344 C 114.710938 276.980469 115.847656 278.777344 117.03125 280.546875 C 118.214844 282.320312 119.4375 284.0625 120.707031 285.773438 C 121.976562 287.484375 123.285156 289.160156 124.632812 290.808594 C 125.984375 292.453125 127.375 294.066406 128.804688 295.644531 C 130.234375 297.222656 131.699219 298.765625 133.207031 300.273438 L 509.34375 676.574219 C 510.492188 677.683594 511.664062 678.761719 512.863281 679.816406 C 514.066406 680.867188 515.292969 681.890625 516.542969 682.882812 C 517.792969 683.878906 519.066406 684.839844 520.363281 685.769531 C 521.660156 686.703125 522.976562 687.601562 524.316406 688.46875 C 525.65625 689.335938 527.019531 690.167969 528.398438 690.96875 C 529.78125 691.769531 531.179688 692.535156 532.597656 693.269531 C 534.015625 694.003906 535.453125 694.699219 536.902344 695.363281 C 538.355469 696.027344 539.824219 696.652344 541.304688 697.246094 C 542.789062 697.835938 544.285156 698.390625 545.792969 698.910156 C 547.304688 699.429688 548.824219 699.914062 550.355469 700.359375 C 551.890625 700.804688 553.433594 701.210938 554.984375 701.582031 C 556.539062 701.949219 558.097656 702.28125 559.667969 702.578125 C 561.234375 702.871094 562.8125 703.128906 564.390625 703.34375 C 565.972656 703.5625 567.558594 703.742188 569.148438 703.882812 C 570.738281 704.023438 572.332031 704.125 573.925781 704.1875 C 575.519531 704.253906 577.117188 704.277344 578.710938 704.261719 C 580.308594 704.25 581.902344 704.195312 583.496094 704.105469 C 585.089844 704.011719 586.679688 703.882812 588.265625 703.710938 C 589.855469 703.542969 591.4375 703.335938 593.011719 703.089844 C 594.589844 702.84375 596.160156 702.558594 597.722656 702.238281 C 599.289062 701.914062 600.84375 701.554688 602.386719 701.15625 C 603.933594 700.761719 605.46875 700.324219 606.992188 699.851562 C 608.519531 699.378906 610.03125 698.871094 611.53125 698.324219 C 613.03125 697.777344 614.515625 697.195312 615.988281 696.578125 C 617.460938 695.960938 618.914062 695.308594 620.355469 694.617188 C 621.796875 693.929688 623.21875 693.207031 624.621094 692.449219 C 626.027344 691.691406 627.414062 690.898438 628.78125 690.074219 C 630.144531 689.246094 631.492188 688.390625 632.816406 687.5 C 634.140625 686.609375 635.445312 685.6875 636.722656 684.730469 C 638.003906 683.777344 639.261719 682.792969 640.492188 681.777344 C 641.722656 680.761719 642.929688 679.71875 644.113281 678.644531 C 645.292969 677.570312 646.449219 676.46875 647.578125 675.339844 C 648.707031 674.210938 649.804688 673.050781 650.878906 671.871094 C 651.949219 670.6875 652.992188 669.476562 654.003906 668.242188 C 655.019531 667.007812 656 665.75 656.953125 664.46875 C 657.90625 663.1875 658.824219 661.882812 659.714844 660.558594 C 660.605469 659.230469 661.460938 657.882812 662.285156 656.515625 C 663.105469 655.148438 663.898438 653.761719 664.652344 652.351562 C 665.410156 650.945312 666.132812 649.523438 666.816406 648.082031 C 667.503906 646.640625 668.15625 645.183594 668.773438 643.707031 C 669.390625 642.234375 669.96875 640.75 670.511719 639.246094 C 671.058594 637.746094 671.566406 636.230469 672.035156 634.707031 C 672.507812 633.179688 672.941406 631.644531 673.335938 630.09375 C 673.730469 628.546875 674.089844 626.992188 674.410156 625.429688 C 674.730469 623.863281 675.011719 622.292969 675.257812 620.714844 C 675.503906 619.136719 675.707031 617.550781 675.875 615.964844 C 676.042969 614.375 676.171875 612.785156 676.261719 611.191406 C 676.351562 609.59375 676.402344 608 676.414062 606.402344 C 676.429688 604.804688 676.402344 603.207031 676.335938 601.613281 C 676.273438 600.015625 676.167969 598.421875 676.027344 596.832031 C 675.886719 595.242188 675.703125 593.65625 675.484375 592.074219 C 675.265625 590.492188 675.007812 588.914062 674.714844 587.347656 C 674.417969 585.777344 674.085938 584.214844 673.710938 582.664062 C 673.339844 581.109375 672.933594 579.566406 672.484375 578.03125 C 672.039062 576.5 671.554688 574.976562 671.035156 573.46875 C 670.515625 571.957031 669.960938 570.460938 669.367188 568.976562 C 668.773438 567.496094 668.144531 566.027344 667.480469 564.574219 C 666.816406 563.121094 666.117188 561.6875 665.386719 560.269531 C 664.652344 558.851562 663.882812 557.449219 663.082031 556.070312 C 662.28125 554.6875 661.445312 553.328125 660.578125 551.988281 C 659.710938 550.648438 658.808594 549.328125 657.878906 548.03125 C 656.945312 546.734375 655.984375 545.460938 654.992188 544.210938 C 653.996094 542.960938 652.972656 541.738281 651.921875 540.535156 C 650.867188 539.335938 649.785156 538.164062 648.675781 537.015625 L 323.074219 211.203125 C 322.289062 210.417969 321.488281 209.65625 320.664062 208.910156 C 319.84375 208.164062 319.003906 207.4375 318.144531 206.734375 C 317.289062 206.027344 316.414062 205.347656 315.523438 204.683594 C 314.628906 204.023438 313.722656 203.382812 312.800781 202.765625 C 311.878906 202.152344 310.941406 201.554688 309.988281 200.984375 C 309.039062 200.414062 308.070312 199.867188 307.09375 199.34375 C 306.113281 198.820312 305.125 198.320312 304.121094 197.847656 C 303.117188 197.371094 302.105469 196.921875 301.078125 196.496094 C 300.054688 196.074219 299.019531 195.671875 297.972656 195.300781 C 296.929688 194.925781 295.875 194.578125 294.8125 194.253906 C 293.75 193.933594 292.683594 193.636719 291.605469 193.367188 C 290.53125 193.097656 289.449219 192.851562 288.359375 192.636719 C 287.269531 192.421875 286.175781 192.230469 285.078125 192.066406 C 283.980469 191.90625 282.882812 191.769531 281.777344 191.660156 C 280.671875 191.550781 279.566406 191.46875 278.457031 191.414062 C 277.351562 191.359375 276.242188 191.332031 275.132812 191.332031 C 274.023438 191.332031 272.914062 191.359375 271.804688 191.414062 C 270.695312 191.46875 269.589844 191.550781 268.484375 191.660156 C 267.382812 191.769531 266.28125 191.90625 265.183594 192.066406 C 264.085938 192.230469 262.992188 192.421875 261.902344 192.636719 C 260.816406 192.851562 259.734375 193.097656 258.65625 193.367188 C 257.578125 193.636719 256.511719 193.933594 255.449219 194.253906 C 254.386719 194.578125 253.332031 194.925781 252.289062 195.300781 C 251.242188 195.671875 250.210938 196.074219 249.183594 196.496094 C 248.160156 196.921875 247.144531 197.371094 246.140625 197.847656 C 245.136719 198.320312 244.148438 198.820312 243.167969 199.34375 C 242.191406 199.867188 241.226562 200.414062 240.273438 200.984375 C 239.320312 201.554688 238.382812 202.152344 237.460938 202.765625 C 236.539062 203.382812 235.632812 204.023438 234.742188 204.683594 C 233.847656 205.347656 232.976562 206.027344 232.117188 206.734375 C 231.257812 207.4375 230.417969 208.164062 229.597656 208.910156 C 228.773438 209.65625 227.972656 210.417969 227.1875 211.203125 C 226.402344 211.988281 225.636719 212.792969 224.890625 213.617188 C 224.148438 214.441406 223.421875 215.28125 222.71875 216.136719 C 222.015625 216.996094 221.332031 217.871094 220.671875 218.761719 C 220.011719 219.65625 219.371094 220.5625 218.753906 221.484375 C 218.136719 222.410156 217.542969 223.347656 216.972656 224.300781 C 216.402344 225.253906 215.855469 226.21875 215.332031 227.195312 C 214.8125 228.175781 214.3125 229.167969 213.835938 230.171875 C 213.363281 231.175781 212.914062 232.191406 212.488281 233.214844 C 212.0625 234.242188 211.664062 235.277344 211.292969 236.324219 C 210.917969 237.367188 210.570312 238.421875 210.246094 239.484375 C 209.925781 240.546875 209.628906 241.617188 209.359375 242.695312 C 209.089844 243.773438 208.847656 244.855469 208.628906 245.945312 C 208.414062 247.03125 208.222656 248.125 208.0625 249.226562 C 207.898438 250.324219 207.761719 251.425781 207.652344 252.53125 C 207.546875 253.636719 207.464844 254.742188 207.410156 255.851562 C 207.355469 256.960938 207.328125 258.070312 207.328125 259.179688 C 207.328125 260.289062 207.355469 261.398438 207.410156 262.507812 C 207.464844 263.617188 207.546875 264.726562 207.652344 265.832031 C 207.761719 266.933594 207.898438 268.035156 208.0625 269.136719 C 208.222656 270.234375 208.414062 271.328125 208.628906 272.417969 C 208.847656 273.503906 209.089844 274.589844 209.359375 275.664062 C 209.628906 276.742188 209.925781 277.8125 210.246094 278.875 C 210.570312 279.9375 210.917969 280.992188 211.292969 282.035156 C 211.664062 283.082031 212.0625 284.117188 212.488281 285.144531 C 212.914062 286.167969 213.363281 287.183594 213.835938 288.1875 C 214.3125 289.191406 214.8125 290.183594 215.332031 291.164062 C 215.855469 292.140625 216.402344 293.109375 216.972656 294.058594 C 217.542969 295.011719 218.136719 295.949219 218.753906 296.875 C 219.371094 297.796875 220.011719 298.703125 220.671875 299.597656 C 221.332031 300.488281 222.015625 301.363281 222.71875 302.222656 C 223.421875 303.078125 224.148438 303.921875 224.890625 304.742188 C 225.636719 305.566406 226.402344 306.371094 227.1875 307.15625 L 492.484375 572.660156 C 493.199219 573.378906 493.839844 574.15625 494.398438 575 C 494.960938 575.84375 495.4375 576.730469 495.824219 577.667969 C 496.210938 578.601562 496.5 579.566406 496.699219 580.5625 C 496.894531 581.554688 496.992188 582.558594 496.992188 583.570312 C 496.992188 584.582031 496.894531 585.585938 496.695312 586.578125 C 496.496094 587.574219 496.207031 588.535156 495.816406 589.472656 C 495.429688 590.40625 494.957031 591.296875 494.394531 592.140625 C 493.832031 592.980469 493.191406 593.761719 492.476562 594.476562 C 491.761719 595.191406 490.980469 595.832031 490.140625 596.394531 C 489.296875 596.957031 488.410156 597.433594 487.476562 597.820312 C 486.539062 598.207031 485.578125 598.5 484.585938 598.699219 C 483.589844 598.894531 482.589844 598.996094 481.578125 598.996094 C 480.566406 598.996094 479.5625 598.898438 478.570312 598.699219 C 477.578125 598.503906 476.613281 598.210938 475.679688 597.824219 C 474.742188 597.4375 473.855469 596.960938 473.011719 596.402344 C 472.171875 595.839844 471.390625 595.199219 470.675781 594.484375 L 205.414062 329.035156 C 204.292969 327.890625 203.199219 326.71875 202.132812 325.519531 C 201.066406 324.320312 200.03125 323.09375 199.027344 321.84375 C 198.019531 320.59375 197.046875 319.320312 196.101562 318.023438 C 195.160156 316.726562 194.246094 315.40625 193.367188 314.0625 C 192.488281 312.71875 191.640625 311.359375 190.828125 309.972656 C 190.015625 308.589844 189.238281 307.1875 188.492188 305.765625 C 187.75 304.347656 187.039062 302.90625 186.363281 301.449219 C 185.691406 299.996094 185.050781 298.523438 184.449219 297.035156 C 183.847656 295.546875 183.28125 294.046875 182.75 292.53125 C 182.222656 291.019531 181.730469 289.492188 181.273438 287.953125 C 180.820312 286.414062 180.402344 284.863281 180.023438 283.304688 C 179.640625 281.746094 179.300781 280.179688 178.996094 278.601562 C 178.695312 277.027344 178.429688 275.445312 178.203125 273.855469 C 177.976562 272.265625 177.792969 270.671875 177.644531 269.074219 C 177.496094 267.476562 177.386719 265.875 177.316406 264.273438 C 177.246094 262.667969 177.214844 261.066406 177.222656 259.460938 C 177.230469 257.855469 177.277344 256.253906 177.363281 254.648438 C 177.449219 253.046875 177.574219 251.449219 177.738281 249.851562 C 177.902344 248.253906 178.105469 246.664062 178.347656 245.078125 C 178.589844 243.488281 178.871094 241.910156 179.1875 240.335938 C 179.507812 238.765625 179.863281 237.199219 180.257812 235.644531 C 180.652344 234.089844 181.085938 232.546875 181.558594 231.011719 C 182.027344 229.476562 182.535156 227.953125 183.078125 226.445312 C 183.625 224.933594 184.203125 223.441406 184.820312 221.960938 C 185.441406 220.476562 186.09375 219.011719 186.78125 217.5625 C 187.46875 216.113281 188.195312 214.683594 188.953125 213.269531 C 189.710938 211.855469 190.503906 210.460938 191.332031 209.085938 C 192.15625 207.710938 193.015625 206.355469 193.910156 205.023438 C 194.804688 203.6875 195.726562 202.378906 196.683594 201.089844 C 197.640625 199.800781 198.628906 198.539062 199.644531 197.296875 C 200.664062 196.058594 201.710938 194.84375 202.789062 193.65625 C 203.867188 192.464844 204.972656 191.304688 206.105469 190.167969 C 207.242188 189.035156 208.402344 187.929688 209.589844 186.851562 C 210.777344 185.773438 211.992188 184.722656 213.230469 183.703125 C 214.46875 182.6875 215.734375 181.699219 217.019531 180.742188 C 218.308594 179.78125 219.617188 178.859375 220.949219 177.964844 C 222.28125 177.070312 223.636719 176.210938 225.011719 175.382812 C 226.382812 174.558594 227.777344 173.761719 229.191406 173.003906 C 230.605469 172.246094 232.035156 171.519531 233.484375 170.832031 C 234.933594 170.140625 236.394531 169.488281 237.875 168.871094 C 239.355469 168.253906 240.851562 167.671875 242.359375 167.125 C 243.867188 166.582031 245.390625 166.074219 246.921875 165.601562 C 248.457031 165.132812 250 164.699219 251.554688 164.304688 C 253.109375 163.910156 254.671875 163.550781 256.242188 163.234375 C 257.816406 162.914062 259.394531 162.632812 260.980469 162.390625 C 262.566406 162.148438 264.15625 161.945312 265.75 161.78125 C 267.347656 161.617188 268.945312 161.492188 270.546875 161.40625 C 272.148438 161.320312 273.75 161.273438 275.355469 161.265625 C 276.957031 161.257812 278.5625 161.289062 280.164062 161.359375 C 281.765625 161.429688 283.363281 161.539062 284.960938 161.6875 C 286.558594 161.835938 288.152344 162.023438 289.738281 162.25 C 291.328125 162.476562 292.910156 162.738281 294.484375 163.042969 C 296.058594 163.347656 297.625 163.6875 299.183594 164.066406 C 300.742188 164.445312 302.289062 164.863281 303.828125 165.320312 C 305.363281 165.773438 306.890625 166.269531 308.40625 166.796875 C 309.917969 167.328125 311.417969 167.894531 312.90625 168.496094 C 314.390625 169.101562 315.863281 169.738281 317.316406 170.414062 C 318.773438 171.089844 320.210938 171.796875 321.632812 172.542969 C 323.050781 173.289062 324.453125 174.066406 325.835938 174.882812 C 327.21875 175.695312 328.578125 176.542969 329.921875 177.421875 C 331.261719 178.300781 332.582031 179.214844 333.878906 180.15625 C 335.175781 181.101562 336.449219 182.078125 337.695312 183.085938 C 338.945312 184.089844 340.171875 185.128906 341.367188 186.195312 C 342.566406 187.257812 343.738281 188.355469 344.886719 189.476562 L 670.484375 515.289062 C 672.734375 517.535156 674.894531 519.863281 676.972656 522.269531 C 679.046875 524.675781 681.03125 527.15625 682.925781 529.707031 C 684.820312 532.261719 686.617188 534.882812 688.316406 537.566406 C 690.015625 540.253906 691.617188 542.996094 693.113281 545.800781 C 694.613281 548.605469 696.007812 551.460938 697.292969 554.367188 C 698.582031 557.273438 699.761719 560.222656 700.832031 563.214844 C 701.902344 566.207031 702.863281 569.238281 703.710938 572.300781 C 704.558594 575.363281 705.292969 578.457031 705.914062 581.574219 C 706.535156 584.691406 707.039062 587.828125 707.425781 590.984375 C 707.816406 594.140625 708.089844 597.304688 708.246094 600.480469 C 708.402344 603.65625 708.441406 606.832031 708.363281 610.011719 C 708.285156 613.191406 708.089844 616.359375 707.78125 619.523438 C 707.46875 622.6875 707.039062 625.835938 706.496094 628.96875 C 705.953125 632.101562 705.296875 635.210938 704.523438 638.292969 C 703.753906 641.378906 702.867188 644.429688 701.871094 647.449219 C 700.875 650.46875 699.769531 653.445312 698.550781 656.382812 C 697.335938 659.320312 696.011719 662.207031 694.585938 665.046875 C 693.15625 667.886719 691.625 670.671875 689.992188 673.398438 C 688.355469 676.125 686.625 678.789062 684.796875 681.386719 C 682.964844 683.988281 681.042969 686.515625 679.027344 688.972656 C 677.011719 691.429688 674.90625 693.808594 672.714844 696.109375 C 670.523438 698.414062 668.25 700.632812 665.898438 702.765625 C 663.542969 704.902344 661.113281 706.945312 658.605469 708.902344 C 656.101562 710.855469 653.527344 712.71875 650.886719 714.484375 C 648.242188 716.25 645.539062 717.914062 642.773438 719.480469 C 640.007812 721.046875 637.191406 722.511719 634.316406 723.867188 C 631.445312 725.226562 628.527344 726.476562 625.5625 727.621094 C 622.597656 728.765625 619.59375 729.796875 616.554688 730.71875 C 613.511719 731.640625 610.441406 732.449219 607.34375 733.144531 C 604.242188 733.839844 601.121094 734.421875 597.976562 734.886719 C 594.835938 735.351562 591.679688 735.699219 588.507812 735.933594 C 585.339844 736.164062 582.167969 736.28125 578.992188 736.277344 Z M 578.972656 736.257812 " fill-opacity="1" fill-rule="nonzero"/></g></svg>