<svg xmlns="http://www.w3.org/2000/svg" xmlns:xlink="http://www.w3.org/1999/xlink" width="1024" zoomAndPan="magnify" viewBox="0 0 768 767.999994" height="1024" preserveAspectRatio="xMidYMid meet" version="1.0"><defs><clipPath id="acaed9fa5e"><path d="M 86.402344 17.160156 L 681.902344 17.160156 L 681.902344 750.660156 L 86.402344 750.660156 Z M 86.402344 17.160156 " clip-rule="nonzero"/></clipPath><clipPath id="4470d35834"><path d="M 494 17.160156 L 681.902344 17.160156 L 681.902344 204 L 494 204 Z M 494 17.160156 " clip-rule="nonzero"/></clipPath><clipPath id="74c172edec"><path d="M 86.402344 561 L 681.902344 561 L 681.902344 750.660156 L 86.402344 750.660156 Z M 86.402344 561 " clip-rule="nonzero"/></clipPath></defs><g clip-path="url(#acaed9fa5e)"><path fill="#f2f4f9" d="M 681.722656 203.925781 L 681.722656 694.261719 C 681.722656 696.109375 681.632812 697.953125 681.449219 699.792969 C 681.269531 701.632812 681 703.457031 680.636719 705.269531 C 680.277344 707.082031 679.828125 708.871094 679.289062 710.640625 C 678.753906 712.410156 678.132812 714.148438 677.425781 715.855469 C 676.714844 717.5625 675.925781 719.230469 675.054688 720.859375 C 674.183594 722.488281 673.234375 724.074219 672.207031 725.609375 C 671.179688 727.144531 670.078125 728.628906 668.90625 730.058594 C 667.730469 731.484375 666.492188 732.851562 665.183594 734.160156 C 663.875 735.464844 662.507812 736.707031 661.078125 737.878906 C 659.648438 739.050781 658.164062 740.148438 656.628906 741.175781 C 655.089844 742.203125 653.503906 743.152344 651.875 744.023438 C 650.242188 744.894531 648.574219 745.683594 646.863281 746.390625 C 645.15625 747.097656 643.417969 747.71875 641.648438 748.257812 C 639.878906 748.792969 638.085938 749.242188 636.273438 749.601562 C 634.457031 749.960938 632.632812 750.234375 630.789062 750.414062 C 628.949219 750.59375 627.105469 750.6875 625.257812 750.6875 L 143.042969 750.6875 C 141.191406 750.683594 139.347656 750.59375 137.507812 750.414062 C 135.667969 750.230469 133.839844 749.960938 132.027344 749.601562 C 130.214844 749.238281 128.421875 748.789062 126.652344 748.253906 C 124.882812 747.71875 123.144531 747.097656 121.433594 746.386719 C 119.726562 745.679688 118.058594 744.890625 116.425781 744.019531 C 114.796875 743.148438 113.210938 742.199219 111.675781 741.171875 C 110.136719 740.148438 108.652344 739.046875 107.222656 737.875 C 105.792969 736.703125 104.425781 735.464844 103.117188 734.15625 C 101.8125 732.851562 100.570312 731.484375 99.398438 730.054688 C 98.222656 728.625 97.125 727.144531 96.097656 725.605469 C 95.070312 724.070312 94.121094 722.488281 93.25 720.859375 C 92.375 719.226562 91.585938 717.558594 90.878906 715.851562 C 90.171875 714.144531 89.550781 712.40625 89.011719 710.640625 C 88.476562 708.871094 88.027344 707.082031 87.664062 705.269531 C 87.304688 703.457031 87.035156 701.632812 86.851562 699.792969 C 86.671875 697.953125 86.582031 696.109375 86.582031 694.261719 L 86.582031 73.617188 C 86.578125 71.769531 86.671875 69.925781 86.851562 68.085938 C 87.03125 66.246094 87.304688 64.421875 87.664062 62.609375 C 88.023438 60.796875 88.472656 59.003906 89.007812 57.238281 C 89.546875 55.46875 90.167969 53.730469 90.875 52.023438 C 91.582031 50.316406 92.371094 48.644531 93.242188 47.015625 C 94.117188 45.386719 95.066406 43.800781 96.09375 42.265625 C 97.121094 40.730469 98.21875 39.246094 99.394531 37.816406 C 100.566406 36.386719 101.804688 35.019531 103.113281 33.714844 C 104.421875 32.40625 105.789062 31.167969 107.21875 29.992188 C 108.648438 28.820312 110.132812 27.722656 111.667969 26.695312 C 113.207031 25.667969 114.792969 24.71875 116.421875 23.847656 C 118.054688 22.972656 119.722656 22.183594 121.433594 21.476562 C 123.140625 20.769531 124.878906 20.148438 126.648438 19.609375 C 128.417969 19.074219 130.210938 18.625 132.023438 18.265625 C 133.839844 17.902344 135.667969 17.632812 137.507812 17.449219 C 139.347656 17.269531 141.191406 17.175781 143.042969 17.175781 L 494.835938 17.175781 Z M 681.722656 203.925781 " fill-opacity="1" fill-rule="nonzero"/></g><g clip-path="url(#4470d35834)"><path fill="#e1e2e3" d="M 681.722656 203.925781 L 534.121094 203.925781 C 532.832031 203.929688 531.550781 203.863281 530.269531 203.738281 C 528.988281 203.613281 527.71875 203.425781 526.457031 203.175781 C 525.195312 202.921875 523.949219 202.613281 522.71875 202.238281 C 521.484375 201.867188 520.277344 201.433594 519.085938 200.941406 C 517.898438 200.449219 516.738281 199.898438 515.601562 199.292969 C 514.46875 198.6875 513.363281 198.027344 512.296875 197.3125 C 511.226562 196.601562 510.191406 195.835938 509.199219 195.019531 C 508.203125 194.203125 507.25 193.34375 506.34375 192.433594 C 505.433594 191.523438 504.570312 190.574219 503.753906 189.578125 C 502.9375 188.585938 502.171875 187.554688 501.457031 186.484375 C 500.742188 185.414062 500.082031 184.316406 499.472656 183.179688 C 498.867188 182.046875 498.320312 180.886719 497.824219 179.699219 C 497.332031 178.511719 496.902344 177.300781 496.527344 176.070312 C 496.152344 174.839844 495.839844 173.597656 495.589844 172.335938 C 495.339844 171.074219 495.152344 169.804688 495.023438 168.523438 C 494.898438 167.246094 494.835938 165.960938 494.835938 164.675781 L 494.835938 17.175781 Z M 681.722656 203.925781 " fill-opacity="1" fill-rule="nonzero"/></g><g clip-path="url(#74c172edec)"><path fill="#4db151" d="M 681.722656 561.199219 L 681.722656 694.261719 C 681.722656 696.109375 681.632812 697.953125 681.449219 699.792969 C 681.269531 701.632812 681 703.457031 680.636719 705.269531 C 680.277344 707.082031 679.828125 708.871094 679.289062 710.640625 C 678.753906 712.410156 678.132812 714.148438 677.425781 715.855469 C 676.714844 717.5625 675.925781 719.230469 675.054688 720.859375 C 674.183594 722.488281 673.234375 724.074219 672.207031 725.609375 C 671.179688 727.144531 670.078125 728.628906 668.90625 730.058594 C 667.730469 731.484375 666.492188 732.851562 665.183594 734.160156 C 663.875 735.464844 662.507812 736.707031 661.078125 737.878906 C 659.648438 739.050781 658.164062 740.148438 656.628906 741.175781 C 655.089844 742.203125 653.503906 743.152344 651.875 744.023438 C 650.242188 744.894531 648.574219 745.683594 646.863281 746.390625 C 645.15625 747.097656 643.417969 747.71875 641.648438 748.257812 C 639.878906 748.792969 638.085938 749.242188 636.273438 749.601562 C 634.457031 749.960938 632.632812 750.234375 630.789062 750.414062 C 628.949219 750.59375 627.105469 750.6875 625.257812 750.6875 L 143.042969 750.6875 C 141.191406 750.683594 139.347656 750.59375 137.507812 750.414062 C 135.667969 750.230469 133.839844 749.960938 132.027344 749.601562 C 130.214844 749.238281 128.421875 748.789062 126.652344 748.253906 C 124.882812 747.71875 123.144531 747.097656 121.433594 746.386719 C 119.726562 745.679688 118.058594 744.890625 116.425781 744.019531 C 114.796875 743.148438 113.210938 742.199219 111.675781 741.171875 C 110.136719 740.148438 108.652344 739.046875 107.222656 737.875 C 105.792969 736.703125 104.425781 735.464844 103.117188 734.15625 C 101.8125 732.851562 100.570312 731.484375 99.398438 730.054688 C 98.222656 728.625 97.125 727.144531 96.097656 725.605469 C 95.070312 724.070312 94.121094 722.488281 93.25 720.859375 C 92.375 719.226562 91.585938 717.558594 90.878906 715.851562 C 90.171875 714.144531 89.550781 712.40625 89.011719 710.640625 C 88.476562 708.871094 88.027344 707.082031 87.664062 705.269531 C 87.304688 703.457031 87.035156 701.632812 86.851562 699.792969 C 86.671875 697.953125 86.582031 696.109375 86.582031 694.261719 L 86.582031 561.199219 Z M 681.722656 561.199219 " fill-opacity="1" fill-rule="nonzero"/></g><path fill="#ffffff" d="M 344.769531 685.566406 L 331.46875 665.253906 L 318.085938 685.566406 L 303.265625 685.566406 L 323.933594 655.4375 L 304.117188 626.320312 L 319.363281 626.320312 L 331.789062 645.546875 L 344.324219 626.335938 L 359.148438 626.335938 L 339.328125 655.261719 L 359.996094 685.5625 Z M 344.769531 685.566406 " fill-opacity="1" fill-rule="nonzero"/><path fill="#ffffff" d="M 369.753906 685.566406 L 369.753906 626.320312 L 382.796875 626.320312 L 382.796875 673.800781 L 412.359375 673.800781 L 412.359375 685.566406 Z M 369.753906 685.566406 " fill-opacity="1" fill-rule="nonzero"/><path fill="#ffffff" d="M 463.441406 675.871094 C 462.398438 678.136719 460.910156 680.054688 458.976562 681.628906 C 456.9375 683.253906 454.667969 684.441406 452.167969 685.183594 C 449.296875 686.039062 446.367188 686.445312 443.371094 686.414062 C 438.804688 686.410156 434.371094 685.636719 430.074219 684.085938 C 425.640625 682.496094 421.691406 680.113281 418.214844 676.9375 L 425.921875 667.710938 C 428.476562 669.816406 431.257812 671.566406 434.265625 672.957031 C 437.246094 674.292969 440.367188 674.941406 443.632812 674.90625 C 446.339844 674.90625 448.445312 674.414062 449.941406 673.425781 C 450.652344 672.992188 451.210938 672.40625 451.613281 671.675781 C 452.011719 670.941406 452.203125 670.15625 452.183594 669.320312 L 452.183594 669.152344 C 452.199219 668.367188 452.042969 667.621094 451.714844 666.910156 C 451.289062 666.136719 450.695312 665.53125 449.933594 665.089844 C 448.777344 664.390625 447.558594 663.824219 446.277344 663.386719 C 444.722656 662.820312 442.699219 662.226562 440.207031 661.609375 C 437.445312 660.949219 434.726562 660.128906 432.054688 659.15625 C 429.816406 658.359375 427.75 657.246094 425.859375 655.8125 C 424.144531 654.476562 422.824219 652.828125 421.90625 650.859375 C 420.972656 648.875 420.507812 646.417969 420.507812 643.496094 L 420.507812 643.324219 C 420.46875 640.773438 420.972656 638.332031 422.023438 636.003906 C 423.035156 633.820312 424.453125 631.945312 426.28125 630.378906 C 428.214844 628.730469 430.390625 627.515625 432.808594 626.734375 C 435.53125 625.855469 438.320312 625.429688 441.179688 625.460938 C 445.285156 625.414062 449.28125 626.066406 453.164062 627.40625 C 456.820312 628.710938 460.167969 630.570312 463.203125 632.992188 L 456.425781 642.8125 C 453.972656 641.125 451.378906 639.707031 448.632812 638.558594 C 446.195312 637.53125 443.65625 637.007812 441.007812 636.992188 C 438.453125 636.992188 436.550781 637.484375 435.292969 638.472656 C 434.691406 638.894531 434.226562 639.429688 433.890625 640.078125 C 433.550781 640.730469 433.382812 641.421875 433.382812 642.152344 L 433.382812 642.320312 C 433.363281 643.199219 433.546875 644.03125 433.9375 644.820312 C 434.421875 645.644531 435.085938 646.28125 435.933594 646.726562 C 437.191406 647.410156 438.507812 647.949219 439.886719 648.332031 C 441.554688 648.839844 443.664062 649.433594 446.210938 650.109375 C 448.949219 650.8125 451.621094 651.703125 454.234375 652.777344 C 456.40625 653.652344 458.394531 654.839844 460.195312 656.335938 C 461.785156 657.675781 463.003906 659.296875 463.847656 661.199219 C 464.726562 663.34375 465.136719 665.574219 465.078125 667.886719 L 465.078125 668.058594 C 465.113281 670.785156 464.566406 673.390625 463.441406 675.871094 Z M 463.441406 675.871094 " fill-opacity="1" fill-rule="nonzero"/><path fill="#4db151" d="M 443.054688 254.5625 L 221.6875 254.5625 L 221.6875 498.363281 L 546.628906 498.363281 L 546.628906 254.5625 Z M 339.753906 347.113281 L 428.542969 347.113281 L 428.542969 405.816406 L 339.757812 405.816406 Z M 339.753906 271.492188 L 428.542969 271.492188 L 428.542969 330.195312 L 339.757812 330.195312 Z M 236.191406 271.492188 L 324.976562 271.492188 L 324.976562 330.195312 L 236.191406 330.195312 Z M 236.191406 347.113281 L 324.976562 347.113281 L 324.976562 405.816406 L 236.191406 405.816406 Z M 324.976562 481.429688 L 236.191406 481.429688 L 236.191406 422.726562 L 324.976562 422.726562 Z M 428.539062 481.429688 L 339.757812 481.429688 L 339.757812 422.726562 L 428.546875 422.726562 Z M 532.101562 481.429688 L 443.324219 481.429688 L 443.324219 422.726562 L 532.113281 422.726562 Z M 532.101562 405.808594 L 443.324219 405.808594 L 443.324219 347.105469 L 532.113281 347.105469 Z M 443.324219 330.183594 L 443.324219 271.480469 L 532.113281 271.480469 L 532.113281 330.183594 Z M 443.324219 330.183594 " fill-opacity="1" fill-rule="nonzero"/></svg>