<svg xmlns="http://www.w3.org/2000/svg" xmlns:xlink="http://www.w3.org/1999/xlink" width="1024" zoomAndPan="magnify" viewBox="0 0 768 767.999994" height="1024" preserveAspectRatio="xMidYMid meet" version="1.0"><defs><clipPath id="2c8fc50a5b"><path d="M 2.839844 5.675781 L 764.839844 5.675781 L 764.839844 767.675781 L 2.839844 767.675781 Z M 2.839844 5.675781 " clip-rule="nonzero"/></clipPath></defs><g clip-path="url(#2c8fc50a5b)"><path stroke-linecap="round" transform="matrix(9.292683, 0, 0, 9.292683, -80.796123, -77.958096)" fill="none" stroke-linejoin="round" d="M 90.000168 80.000896 C 90.000168 85.500855 85.50108 89.999943 80.001121 89.999943 L 19.998853 89.999943 C 14.498894 89.999943 9.999807 85.500855 9.999807 80.000896 L 9.999807 19.999049 C 9.999807 14.49909 14.498894 10.000002 19.998853 10.000002 L 80.001121 10.000002 C 85.50108 10.000002 90.000168 14.49909 90.000168 19.999049 Z M 90.000168 80.000896 " stroke="#000000" stroke-width="2" stroke-opacity="1" stroke-miterlimit="10"/></g><path stroke-linecap="round" transform="matrix(9.292683, 0, 0, 9.292683, -80.796123, -77.958096)" fill-opacity="1" fill="#000000" fill-rule="nonzero" stroke-linejoin="round" d="M 80.001121 17.500023 L 19.998853 17.500023 C 18.644041 17.500023 17.499827 18.643816 17.499827 19.999049 L 17.499827 62.925969 L 26.463954 53.961843 C 28.413993 52.011804 31.580126 52.011804 33.533108 53.965206 L 38.962867 59.392864 L 57.92604 40.428009 C 61.831163 36.522046 68.165111 36.524148 72.071915 40.430111 L 82.500147 50.857082 L 82.500147 19.999049 C 82.500147 18.643816 81.355093 17.500023 80.001121 17.500023 Z M 33.750012 42.499952 C 28.917161 42.499952 24.999848 38.583059 24.999848 33.750208 C 24.999848 28.916936 28.917161 25.000044 33.750012 25.000044 C 38.582864 25.000044 42.500177 28.916936 42.500177 33.748947 C 42.500177 38.583059 38.582864 42.499952 33.750012 42.499952 Z M 33.750012 42.499952 " stroke="#000000" stroke-width="2" stroke-opacity="1" stroke-miterlimit="10"/><path stroke-linecap="round" transform="matrix(9.292683, 0, 0, 9.292683, -80.796123, -77.958096)" fill-opacity="1" fill="#000000" fill-rule="nonzero" stroke-linejoin="round" d="M 17.499827 73.534114 L 17.499827 80.000896 C 17.499827 81.354868 18.644041 82.499922 19.998853 82.499922 L 80.001121 82.499922 C 81.355093 82.499922 82.500147 81.354868 82.500147 80.000896 L 82.500147 61.464806 L 66.767843 45.73082 C 65.792192 44.756011 64.206183 44.756011 63.230953 45.73082 L 38.962867 70.000168 L 29.997059 61.03394 Z M 17.499827 73.534114 " stroke="#000000" stroke-width="2" stroke-opacity="1" stroke-miterlimit="10"/><path stroke-linecap="round" transform="matrix(9.292683, 0, 0, 9.292683, -80.796123, -77.958096)" fill="none" stroke-linejoin="round" d="M 42.500177 33.750208 C 42.500177 33.893129 42.496393 34.036471 42.489668 34.179393 C 42.482522 34.322315 42.472013 34.465236 42.45772 34.607737 C 42.443849 34.750239 42.426194 34.89232 42.405176 35.03398 C 42.384158 35.175641 42.359777 35.31646 42.332034 35.45686 C 42.30387 35.59768 42.272763 35.737238 42.237873 35.875956 C 42.202984 36.015095 42.164731 36.152972 42.123116 36.290009 C 42.0815 36.427045 42.036942 36.562821 41.988601 36.697755 C 41.94026 36.83269 41.888556 36.966364 41.83391 37.098356 C 41.779263 37.230769 41.721254 37.3615 41.659882 37.49097 C 41.598509 37.62044 41.534195 37.748229 41.466938 37.874757 C 41.39926 38.000864 41.32864 38.12571 41.255077 38.248455 C 41.181515 38.371199 41.10501 38.492262 41.025562 38.611223 C 40.945694 38.730185 40.863304 38.847464 40.777971 38.962222 C 40.692639 39.0774 40.604784 39.190056 40.513987 39.30103 C 40.42319 39.411584 40.32945 39.520037 40.233188 39.625967 C 40.137346 39.732317 40.038562 39.835725 39.937256 39.937031 C 39.83595 40.038338 39.732122 40.137122 39.626191 40.233383 C 39.519841 40.329645 39.411809 40.422965 39.300835 40.513762 C 39.190281 40.604559 39.077204 40.692834 38.962447 40.778167 C 38.847269 40.8635 38.730409 40.94589 38.611448 41.025337 C 38.492067 41.104785 38.371424 41.18129 38.248259 41.255273 C 38.125515 41.328835 38.001089 41.399456 37.874561 41.466713 C 37.748454 41.53439 37.620665 41.598705 37.491195 41.660077 C 37.361725 41.721029 37.230573 41.779038 37.098581 41.834105 C 36.966168 41.888752 36.832495 41.940456 36.69798 41.988377 C 36.563045 42.036718 36.42685 42.081696 36.289813 42.123311 C 36.152776 42.164927 36.014899 42.203179 35.876181 42.237649 C 35.737043 42.272538 35.597484 42.304065 35.457085 42.331809 C 35.316685 42.359973 35.175445 42.384353 35.033784 42.405371 C 34.892124 42.426389 34.750043 42.443624 34.607542 42.457916 C 34.465041 42.471788 34.322539 42.482297 34.179197 42.489443 C 34.036276 42.496589 33.893354 42.499952 33.750012 42.499952 C 33.60667 42.499952 33.463749 42.496589 33.320827 42.489443 C 33.177485 42.482297 33.034984 42.471788 32.892483 42.457916 C 32.749981 42.443624 32.607901 42.426389 32.46624 42.405371 C 32.32458 42.384353 32.183339 42.359973 32.04294 42.331809 C 31.902541 42.304065 31.762982 42.272538 31.623843 42.237649 C 31.485125 42.203179 31.347248 42.164927 31.210212 42.123311 C 31.073175 42.081696 30.936979 42.036718 30.802044 41.988377 C 30.66753 41.940456 30.533856 41.888752 30.401443 41.834105 C 30.269031 41.779038 30.1383 41.721029 30.008829 41.660077 C 29.879359 41.598705 29.751571 41.53439 29.625463 41.466713 C 29.498936 41.399456 29.37451 41.328835 29.251765 41.255273 C 29.128601 41.18129 29.007958 41.104785 28.888576 41.025337 C 28.769615 40.94589 28.652756 40.8635 28.537578 40.778167 C 28.42282 40.692834 28.309744 40.604559 28.19919 40.513762 C 28.088215 40.422965 27.979763 40.329645 27.873833 40.233383 C 27.767903 40.137122 27.664075 40.038338 27.562768 39.937031 C 27.461462 39.835725 27.362678 39.732317 27.266837 39.625967 C 27.170575 39.520037 27.076835 39.411584 26.986038 39.30103 C 26.895241 39.190056 26.807386 39.0774 26.722053 38.962222 C 26.636721 38.847464 26.55433 38.730185 26.474463 38.611223 C 26.395015 38.492262 26.31851 38.371199 26.244947 38.248455 C 26.171385 38.12571 26.100765 38.000864 26.033087 37.874757 C 25.96583 37.748229 25.901515 37.62044 25.840143 37.49097 C 25.778771 37.3615 25.720761 37.230769 25.666115 37.098356 C 25.611048 36.966364 25.559764 36.83269 25.511423 36.697755 C 25.463082 36.562821 25.418524 36.427045 25.376909 36.290009 C 25.335293 36.152972 25.297041 36.015095 25.262151 35.875956 C 25.227261 35.737238 25.196155 35.59768 25.167991 35.45686 C 25.140247 35.31646 25.115867 35.175641 25.094849 35.03398 C 25.073831 34.89232 25.056176 34.750239 25.042304 34.607737 C 25.028012 34.465236 25.017503 34.322315 25.010357 34.179393 C 25.003631 34.036471 24.999848 33.893129 24.999848 33.750208 C 24.999848 33.606866 25.003631 33.463524 25.010357 33.320602 C 25.017503 33.177681 25.028012 33.034759 25.042304 32.892258 C 25.056176 32.749757 25.073831 32.607676 25.094849 32.466015 C 25.115867 32.324355 25.140247 32.183535 25.167991 32.043136 C 25.196155 31.902316 25.227261 31.762757 25.262151 31.624039 C 25.297041 31.484901 25.335293 31.347023 25.376909 31.209987 C 25.418524 31.07295 25.463082 30.937175 25.511423 30.80224 C 25.559764 30.667305 25.611048 30.533631 25.666115 30.401639 C 25.720761 30.269226 25.778771 30.138495 25.840143 30.009025 C 25.901515 29.879555 25.96583 29.751766 26.033087 29.625238 C 26.100765 29.499131 26.171385 29.374285 26.244947 29.251541 C 26.31851 29.128796 26.395015 29.007733 26.474463 28.888772 C 26.55433 28.769811 26.636721 28.652531 26.722053 28.537773 C 26.807386 28.422595 26.895241 28.309939 26.986038 28.198965 C 27.076835 28.088411 27.170575 27.979959 27.266837 27.874029 C 27.362678 27.767678 27.461462 27.66427 27.562768 27.562964 C 27.664075 27.461658 27.767903 27.362874 27.873833 27.266612 C 27.979763 27.17035 28.088215 27.077031 28.19919 26.986233 C 28.309744 26.895436 28.42282 26.807161 28.537578 26.721828 C 28.652756 26.636496 28.769615 26.554106 28.888576 26.474658 C 29.007958 26.39521 29.128601 26.318285 29.251765 26.244722 C 29.37451 26.17116 29.498936 26.10054 29.625463 26.033283 C 29.751571 25.965605 29.879359 25.90129 30.008829 25.839918 C 30.1383 25.778966 30.269031 25.720957 30.401443 25.66589 C 30.533856 25.611244 30.66753 25.55954 30.802044 25.511619 C 30.936979 25.463278 31.073175 25.418299 31.210212 25.376684 C 31.347248 25.335069 31.485125 25.296816 31.623843 25.262347 C 31.762982 25.227457 31.902541 25.19593 32.04294 25.168187 C 32.183339 25.140023 32.32458 25.115642 32.46624 25.094624 C 32.607901 25.073606 32.749981 25.056371 32.892483 25.042079 C 33.034984 25.028208 33.177485 25.017699 33.320827 25.010552 C 33.463749 25.003406 33.60667 25.000044 33.750012 25.000044 C 33.893354 25.000044 34.036276 25.003406 34.179197 25.010552 C 34.322539 25.017699 34.465041 25.028208 34.607542 25.042079 C 34.750043 25.056371 34.892124 25.073606 35.033784 25.094624 C 35.175445 25.115642 35.316685 25.140023 35.457085 25.168187 C 35.597484 25.19593 35.737043 25.227457 35.876181 25.262347 C 36.014899 25.296816 36.152776 25.335069 36.289813 25.376684 C 36.42685 25.418299 36.563045 25.463278 36.69798 25.511619 C 36.832495 25.55954 36.966168 25.611244 37.098581 25.66589 C 37.230573 25.720957 37.361725 25.778966 37.491195 25.839918 C 37.620665 25.90129 37.748454 25.965605 37.874561 26.033283 C 38.001089 26.10054 38.125515 26.17116 38.248259 26.244722 C 38.371424 26.318285 38.492067 26.39521 38.611028 26.474658 C 38.730409 26.554106 38.847269 26.636496 38.962447 26.721828 C 39.077204 26.807161 39.190281 26.895436 39.300835 26.986233 C 39.411809 27.077031 39.519841 27.17035 39.626191 27.266612 C 39.732122 27.362874 39.83595 27.461658 39.937256 27.562964 C 40.038562 27.66427 40.137346 27.767678 40.233188 27.874029 C 40.32945 27.979959 40.42319 28.088411 40.513987 28.198965 C 40.604784 28.309939 40.692639 28.422595 40.777971 28.537773 C 40.863304 28.652531 40.945694 28.769811 41.025562 28.888772 C 41.10501 29.007733 41.181515 29.128796 41.255077 29.251541 C 41.32864 29.374285 41.39926 29.499131 41.466938 29.625238 C 41.534195 29.751766 41.598509 29.879555 41.659882 30.009025 C 41.721254 30.138495 41.779263 30.269226 41.83391 30.401639 C 41.888556 30.533631 41.94026 30.667305 41.988601 30.80224 C 42.036942 30.937175 42.0815 31.07295 42.123116 31.209987 C 42.164731 31.347023 42.202984 31.484901 42.237873 31.624039 C 42.272763 31.762757 42.30387 31.902316 42.332034 32.043136 C 42.359777 32.183535 42.384158 32.324355 42.405176 32.466015 C 42.426194 32.607676 42.443849 32.749757 42.45772 32.892258 C 42.472013 33.034759 42.482522 33.177681 42.489668 33.320602 C 42.496393 33.463524 42.500177 33.606866 42.500177 33.750208 Z M 42.500177 33.750208 " stroke="#000000" stroke-width="2" stroke-opacity="1" stroke-miterlimit="10"/></svg>