<svg xmlns="http://www.w3.org/2000/svg" xmlns:xlink="http://www.w3.org/1999/xlink" width="1024" zoomAndPan="magnify" viewBox="0 0 768 767.999994" height="1024" preserveAspectRatio="xMidYMid meet" version="1.0"><defs><clipPath id="094585cfa1"><path d="M 100.496094 571 L 352 571 L 352 750 L 100.496094 750 Z M 100.496094 571 " clip-rule="nonzero"/></clipPath><clipPath id="6e56c27f8c"><path d="M 181 54 L 667.496094 54 L 667.496094 712 L 181 712 Z M 181 54 " clip-rule="nonzero"/></clipPath><clipPath id="c594dafee1"><path d="M 100.496094 448 L 547 448 L 547 687 L 100.496094 687 Z M 100.496094 448 " clip-rule="nonzero"/></clipPath></defs><g clip-path="url(#094585cfa1)"><path fill="#ff3131" d="M 100.496094 571.984375 C 100.496094 573.519531 100.570312 575.050781 100.722656 576.578125 C 100.871094 578.105469 101.097656 579.621094 101.394531 581.125 C 101.695312 582.628906 102.066406 584.117188 102.511719 585.585938 C 102.957031 587.054688 103.476562 588.496094 104.0625 589.914062 C 104.648438 591.332031 105.304688 592.71875 106.027344 594.070312 C 106.753906 595.425781 107.539062 596.738281 108.394531 598.015625 C 109.246094 599.292969 110.160156 600.523438 111.132812 601.707031 C 112.105469 602.894531 113.136719 604.03125 114.21875 605.117188 C 115.304688 606.203125 116.441406 607.230469 117.628906 608.203125 C 118.8125 609.175781 120.046875 610.089844 121.320312 610.941406 C 122.597656 611.796875 123.914062 612.582031 125.265625 613.308594 C 126.617188 614.03125 128.003906 614.6875 129.421875 615.273438 C 130.839844 615.859375 132.285156 616.375 133.753906 616.824219 C 135.222656 617.269531 136.707031 617.640625 138.214844 617.941406 C 139.71875 618.238281 141.234375 618.464844 142.761719 618.613281 C 144.289062 618.765625 145.820312 618.839844 147.355469 618.839844 L 305.039062 619.425781 C 306.570312 619.425781 308.101562 619.5 309.628906 619.652344 C 311.15625 619.800781 312.675781 620.027344 314.179688 620.324219 C 315.683594 620.625 317.171875 620.996094 318.640625 621.445312 C 320.109375 621.890625 321.550781 622.40625 322.96875 622.992188 C 324.386719 623.578125 325.773438 624.234375 327.125 624.957031 C 328.480469 625.683594 329.792969 626.46875 331.070312 627.324219 C 332.347656 628.175781 333.578125 629.089844 334.765625 630.0625 C 335.949219 631.035156 337.085938 632.066406 338.171875 633.148438 C 339.257812 634.234375 340.285156 635.371094 341.261719 636.558594 C 342.234375 637.742188 343.148438 638.972656 344 640.25 C 344.851562 641.527344 345.640625 642.839844 346.363281 644.195312 C 347.085938 645.546875 347.742188 646.933594 348.328125 648.351562 C 348.917969 649.769531 349.433594 651.210938 349.878906 652.679688 C 350.324219 654.148438 350.695312 655.636719 350.996094 657.140625 C 351.296875 658.644531 351.519531 660.164062 351.671875 661.691406 C 351.820312 663.214844 351.898438 664.746094 351.898438 666.28125 L 351.898438 702.597656 C 351.898438 704.128906 351.820312 705.660156 351.671875 707.1875 C 351.519531 708.714844 351.296875 710.230469 350.996094 711.738281 C 350.695312 713.242188 350.324219 714.730469 349.878906 716.199219 C 349.433594 717.667969 348.917969 719.109375 348.328125 720.527344 C 347.742188 721.945312 347.085938 723.332031 346.363281 724.683594 C 345.640625 726.039062 344.851562 727.351562 344 728.628906 C 343.148438 729.902344 342.234375 731.136719 341.261719 732.320312 C 340.285156 733.507812 339.257812 734.644531 338.171875 735.730469 C 337.085938 736.8125 335.949219 737.84375 334.765625 738.816406 C 333.578125 739.789062 332.347656 740.703125 331.070312 741.554688 C 329.792969 742.410156 328.480469 743.195312 327.125 743.917969 C 325.773438 744.644531 324.386719 745.296875 322.96875 745.886719 C 321.550781 746.472656 320.109375 746.988281 318.640625 747.433594 C 317.171875 747.878906 315.683594 748.253906 314.179688 748.550781 C 312.675781 748.851562 311.15625 749.078125 309.628906 749.226562 C 308.101562 749.378906 306.570312 749.453125 305.039062 749.453125 L 147.003906 749.453125 C 145.46875 749.453125 143.9375 749.378906 142.410156 749.226562 C 140.882812 749.078125 139.367188 748.851562 137.863281 748.550781 C 136.355469 748.253906 134.871094 747.878906 133.402344 747.433594 C 131.933594 746.988281 130.488281 746.472656 129.070312 745.886719 C 127.652344 745.296875 126.269531 744.644531 124.914062 743.917969 C 123.5625 743.195312 122.246094 742.410156 120.96875 741.554688 C 119.695312 740.703125 118.460938 739.789062 117.277344 738.816406 C 116.089844 737.84375 114.953125 736.8125 113.867188 735.730469 C 112.785156 734.644531 111.753906 733.507812 110.78125 732.320312 C 109.808594 731.136719 108.894531 729.902344 108.042969 728.628906 C 107.1875 727.351562 106.402344 726.039062 105.675781 724.683594 C 104.953125 723.332031 104.296875 721.945312 103.710938 720.527344 C 103.125 719.109375 102.605469 717.667969 102.160156 716.199219 C 101.714844 714.730469 101.34375 713.242188 101.042969 711.738281 C 100.746094 710.230469 100.519531 708.714844 100.371094 707.1875 C 100.21875 705.660156 100.144531 704.128906 100.144531 702.597656 Z M 100.496094 571.984375 " fill-opacity="1" fill-rule="nonzero"/></g><g clip-path="url(#6e56c27f8c)"><path fill="#c6c5c5" d="M 252.789062 54.921875 C 251.625 54.929688 250.460938 54.96875 249.300781 55.035156 C 248.136719 55.101562 246.976562 55.195312 245.820312 55.316406 C 244.660156 55.441406 243.507812 55.589844 242.355469 55.769531 C 241.207031 55.949219 240.058594 56.15625 238.917969 56.390625 C 237.777344 56.625 236.644531 56.886719 235.515625 57.175781 C 234.390625 57.464844 233.269531 57.78125 232.15625 58.125 C 231.042969 58.46875 229.941406 58.839844 228.847656 59.238281 C 227.753906 59.636719 226.667969 60.058594 225.59375 60.507812 C 224.519531 60.960938 223.460938 61.4375 222.410156 61.9375 C 221.359375 62.441406 220.320312 62.96875 219.296875 63.519531 C 218.269531 64.070312 217.261719 64.648438 216.261719 65.25 C 215.265625 65.851562 214.285156 66.476562 213.320312 67.128906 C 212.351562 67.777344 211.402344 68.449219 210.46875 69.144531 C 209.535156 69.839844 208.617188 70.558594 207.71875 71.296875 C 206.820312 72.039062 205.941406 72.800781 205.078125 73.582031 C 204.21875 74.367188 203.375 75.167969 202.550781 75.992188 C 201.730469 76.816406 200.929688 77.660156 200.144531 78.523438 C 199.363281 79.386719 198.605469 80.269531 197.867188 81.167969 C 197.128906 82.066406 196.410156 82.984375 195.714844 83.917969 C 195.023438 84.855469 194.351562 85.804688 193.703125 86.773438 C 193.054688 87.742188 192.433594 88.722656 191.832031 89.71875 C 191.230469 90.71875 190.65625 91.730469 190.105469 92.753906 C 189.554688 93.78125 189.027344 94.820312 188.527344 95.871094 C 188.027344 96.921875 187.554688 97.984375 187.105469 99.058594 C 186.65625 100.132812 186.234375 101.21875 185.839844 102.3125 C 185.441406 103.410156 185.074219 104.511719 184.730469 105.625 C 184.390625 106.738281 184.074219 107.859375 183.789062 108.988281 C 183.5 110.113281 183.238281 111.25 183.007812 112.390625 C 182.773438 113.53125 182.570312 114.675781 182.394531 115.828125 C 182.214844 116.976562 182.066406 118.132812 181.945312 119.289062 C 181.828125 120.449219 181.734375 121.609375 181.671875 122.769531 C 181.605469 123.933594 181.570312 125.097656 181.5625 126.261719 L 181.5625 639.574219 C 181.5625 640.742188 181.589844 641.910156 181.648438 643.078125 C 181.707031 644.242188 181.789062 645.410156 181.90625 646.570312 C 182.019531 647.734375 182.160156 648.894531 182.332031 650.050781 C 182.503906 651.207031 182.703125 652.355469 182.929688 653.503906 C 183.15625 654.648438 183.410156 655.789062 183.691406 656.921875 C 183.976562 658.054688 184.285156 659.183594 184.625 660.300781 C 184.960938 661.417969 185.328125 662.527344 185.71875 663.628906 C 186.109375 664.730469 186.53125 665.820312 186.976562 666.902344 C 187.421875 667.980469 187.890625 669.050781 188.390625 670.105469 C 188.886719 671.164062 189.410156 672.207031 189.957031 673.238281 C 190.507812 674.273438 191.082031 675.289062 191.679688 676.292969 C 192.277344 677.296875 192.902344 678.285156 193.546875 679.257812 C 194.195312 680.230469 194.863281 681.1875 195.558594 682.128906 C 196.25 683.066406 196.96875 683.992188 197.707031 684.894531 C 198.445312 685.800781 199.207031 686.6875 199.988281 687.554688 C 200.769531 688.425781 201.570312 689.273438 202.394531 690.101562 C 203.21875 690.929688 204.0625 691.738281 204.925781 692.527344 C 205.789062 693.3125 206.671875 694.082031 207.570312 694.824219 C 208.472656 695.570312 209.390625 696.292969 210.324219 696.992188 C 211.261719 697.691406 212.214844 698.367188 213.183594 699.019531 C 214.152344 699.671875 215.136719 700.300781 216.136719 700.90625 C 217.132812 701.511719 218.148438 702.09375 219.175781 702.648438 C 220.203125 703.203125 221.246094 703.734375 222.300781 704.238281 C 223.351562 704.742188 224.417969 705.222656 225.496094 705.671875 C 226.574219 706.125 227.660156 706.550781 228.757812 706.949219 C 229.859375 707.351562 230.964844 707.722656 232.082031 708.066406 C 233.199219 708.414062 234.320312 708.730469 235.453125 709.019531 C 236.585938 709.308594 237.722656 709.574219 238.867188 709.808594 C 240.011719 710.042969 241.164062 710.25 242.316406 710.425781 C 243.472656 710.605469 244.632812 710.753906 245.792969 710.875 C 246.957031 710.996094 248.121094 711.089844 249.285156 711.15625 C 250.453125 711.21875 251.621094 711.257812 252.789062 711.265625 L 596.269531 711.265625 C 597.4375 711.257812 598.605469 711.21875 599.773438 711.15625 C 600.9375 711.089844 602.101562 711 603.265625 710.875 C 604.425781 710.753906 605.585938 710.605469 606.742188 710.425781 C 607.894531 710.25 609.042969 710.042969 610.191406 709.808594 C 611.335938 709.574219 612.472656 709.308594 613.605469 709.019531 C 614.734375 708.730469 615.859375 708.414062 616.976562 708.066406 C 618.09375 707.722656 619.199219 707.351562 620.296875 706.949219 C 621.398438 706.550781 622.484375 706.125 623.5625 705.671875 C 624.640625 705.222656 625.703125 704.742188 626.757812 704.238281 C 627.8125 703.734375 628.851562 703.203125 629.882812 702.648438 C 630.910156 702.09375 631.921875 701.511719 632.921875 700.90625 C 633.921875 700.300781 634.90625 699.671875 635.875 699.019531 C 636.84375 698.367188 637.796875 697.691406 638.734375 696.992188 C 639.667969 696.292969 640.585938 695.570312 641.488281 694.824219 C 642.386719 694.082031 643.269531 693.3125 644.132812 692.527344 C 644.996094 691.738281 645.839844 690.929688 646.664062 690.101562 C 647.484375 689.273438 648.289062 688.425781 649.070312 687.554688 C 649.851562 686.6875 650.613281 685.800781 651.351562 684.894531 C 652.089844 683.992188 652.804688 683.066406 653.5 682.128906 C 654.195312 681.1875 654.863281 680.230469 655.511719 679.257812 C 656.15625 678.285156 656.78125 677.296875 657.378906 676.292969 C 657.976562 675.289062 658.550781 674.273438 659.097656 673.238281 C 659.648438 672.207031 660.171875 671.164062 660.667969 670.105469 C 661.167969 669.050781 661.636719 667.980469 662.082031 666.902344 C 662.527344 665.820312 662.945312 664.730469 663.339844 663.628906 C 663.730469 662.527344 664.097656 661.417969 664.433594 660.300781 C 664.773438 659.183594 665.082031 658.054688 665.363281 656.921875 C 665.648438 655.789062 665.902344 654.648438 666.128906 653.503906 C 666.355469 652.355469 666.554688 651.207031 666.726562 650.050781 C 666.898438 648.894531 667.039062 647.734375 667.152344 646.570312 C 667.265625 645.410156 667.351562 644.242188 667.410156 643.078125 C 667.46875 641.910156 667.496094 640.742188 667.496094 639.574219 L 667.496094 121.808594 C 667.496094 120.71875 667.46875 119.628906 667.414062 118.542969 C 667.363281 117.453125 667.28125 116.367188 667.175781 115.28125 C 667.070312 114.199219 666.9375 113.117188 666.777344 112.039062 C 666.617188 110.960938 666.433594 109.886719 666.222656 108.816406 C 666.011719 107.75 665.773438 106.683594 665.507812 105.628906 C 665.246094 104.570312 664.957031 103.519531 664.640625 102.476562 C 664.324219 101.433594 663.984375 100.398438 663.621094 99.371094 C 663.253906 98.34375 662.863281 97.328125 662.449219 96.320312 C 662.035156 95.3125 661.59375 94.316406 661.128906 93.332031 C 660.664062 92.34375 660.179688 91.371094 659.667969 90.40625 C 659.15625 89.445312 658.621094 88.496094 658.0625 87.558594 C 657.503906 86.625 656.921875 85.703125 656.320312 84.792969 C 655.71875 83.886719 655.09375 82.996094 654.445312 82.117188 C 653.796875 81.238281 653.132812 80.378906 652.441406 79.535156 C 651.753906 78.691406 651.042969 77.863281 650.316406 77.050781 C 649.585938 76.242188 648.835938 75.453125 648.070312 74.679688 C 647.300781 73.90625 646.515625 73.152344 645.710938 72.414062 C 644.90625 71.679688 644.082031 70.964844 643.242188 70.269531 C 642.402344 69.578125 641.546875 68.902344 640.675781 68.25 C 639.800781 67.597656 638.914062 66.964844 638.011719 66.355469 C 637.105469 65.746094 636.1875 65.160156 635.257812 64.59375 C 634.324219 64.03125 633.378906 63.488281 632.421875 62.972656 C 631.460938 62.453125 630.492188 61.957031 629.507812 61.488281 C 628.523438 61.015625 627.53125 60.570312 626.527344 60.148438 C 625.523438 59.726562 624.507812 59.328125 623.484375 58.953125 C 622.460938 58.582031 621.425781 58.234375 620.386719 57.914062 C 619.34375 57.589844 618.296875 57.292969 617.242188 57.023438 C 616.183594 56.75 615.125 56.507812 614.054688 56.285156 C 612.988281 56.066406 611.914062 55.875 610.839844 55.707031 C 609.761719 55.542969 608.679688 55.402344 607.597656 55.285156 C 606.511719 55.171875 605.425781 55.085938 604.339844 55.023438 C 603.25 54.964844 602.160156 54.929688 601.070312 54.921875 Z M 252.789062 54.921875 " fill-opacity="1" fill-rule="nonzero"/></g><path fill="#e2e2e2" d="M 630.007812 233.796875 L 630.007812 603.144531 C 630.007812 604.3125 629.980469 605.484375 629.921875 606.652344 C 629.863281 607.820312 629.78125 608.988281 629.664062 610.152344 C 629.550781 611.316406 629.410156 612.476562 629.238281 613.636719 C 629.066406 614.792969 628.867188 615.945312 628.640625 617.09375 C 628.414062 618.242188 628.15625 619.382812 627.875 620.519531 C 627.589844 621.65625 627.28125 622.785156 626.941406 623.902344 C 626.601562 625.023438 626.238281 626.136719 625.84375 627.238281 C 625.453125 628.339844 625.03125 629.433594 624.585938 630.515625 C 624.140625 631.597656 623.667969 632.667969 623.167969 633.726562 C 622.671875 634.785156 622.148438 635.832031 621.597656 636.863281 C 621.046875 637.898438 620.472656 638.917969 619.875 639.921875 C 619.273438 640.925781 618.652344 641.917969 618.003906 642.890625 C 617.355469 643.867188 616.683594 644.824219 615.988281 645.765625 C 615.292969 646.707031 614.578125 647.632812 613.835938 648.539062 C 613.097656 649.445312 612.335938 650.335938 611.554688 651.203125 C 610.769531 652.074219 609.964844 652.921875 609.140625 653.753906 C 608.316406 654.585938 607.472656 655.394531 606.605469 656.183594 C 605.742188 656.972656 604.859375 657.738281 603.957031 658.484375 C 603.054688 659.230469 602.136719 659.953125 601.199219 660.65625 C 600.261719 661.355469 599.304688 662.03125 598.335938 662.6875 C 597.367188 663.339844 596.378906 663.972656 595.378906 664.578125 C 594.378906 665.183594 593.363281 665.765625 592.332031 666.320312 C 591.300781 666.875 590.257812 667.40625 589.203125 667.914062 C 588.148438 668.417969 587.082031 668.898438 586 669.351562 C 584.921875 669.804688 583.832031 670.230469 582.734375 670.628906 C 581.632812 671.03125 580.523438 671.402344 579.40625 671.75 C 578.289062 672.09375 577.160156 672.414062 576.027344 672.703125 C 574.894531 672.992188 573.753906 673.257812 572.609375 673.492188 C 571.460938 673.726562 570.308594 673.933594 569.152344 674.113281 C 567.996094 674.289062 566.835938 674.441406 565.671875 674.5625 C 564.507812 674.683594 563.339844 674.777344 562.171875 674.84375 C 561.003906 674.90625 559.835938 674.941406 558.664062 674.949219 L 215.535156 674.949219 C 214.367188 674.941406 213.195312 674.90625 212.027344 674.84375 C 210.863281 674.777344 209.695312 674.683594 208.53125 674.5625 C 207.367188 674.441406 206.210938 674.289062 205.054688 674.109375 C 203.898438 673.933594 202.746094 673.726562 201.601562 673.492188 C 200.453125 673.253906 199.316406 672.992188 198.183594 672.703125 C 197.050781 672.410156 195.925781 672.09375 194.808594 671.746094 C 193.691406 671.402344 192.582031 671.027344 191.480469 670.628906 C 190.382812 670.230469 189.292969 669.800781 188.214844 669.347656 C 187.136719 668.894531 186.070312 668.414062 185.015625 667.910156 C 183.960938 667.40625 182.917969 666.875 181.890625 666.316406 C 180.863281 665.761719 179.847656 665.179688 178.847656 664.574219 C 177.847656 663.96875 176.863281 663.335938 175.890625 662.683594 C 174.921875 662.027344 173.96875 661.351562 173.035156 660.648438 C 172.097656 659.949219 171.179688 659.226562 170.277344 658.480469 C 169.378906 657.734375 168.496094 656.964844 167.632812 656.175781 C 166.769531 655.386719 165.925781 654.578125 165.101562 653.746094 C 164.277344 652.917969 163.472656 652.066406 162.691406 651.195312 C 161.910156 650.328125 161.148438 649.4375 160.410156 648.53125 C 159.671875 647.625 158.957031 646.699219 158.261719 645.757812 C 157.570312 644.816406 156.898438 643.859375 156.253906 642.882812 C 155.605469 641.90625 154.984375 640.917969 154.386719 639.914062 C 153.789062 638.90625 153.214844 637.886719 152.667969 636.855469 C 152.121094 635.820312 151.597656 634.777344 151.101562 633.71875 C 150.601562 632.660156 150.132812 631.589844 149.6875 630.507812 C 149.242188 629.425781 148.824219 628.332031 148.433594 627.230469 C 148.042969 626.128906 147.679688 625.015625 147.34375 623.894531 C 147.007812 622.777344 146.699219 621.648438 146.414062 620.511719 C 146.132812 619.378906 145.878906 618.238281 145.65625 617.089844 C 145.429688 615.941406 145.230469 614.789062 145.0625 613.632812 C 144.894531 612.472656 144.753906 611.3125 144.640625 610.148438 C 144.527344 608.984375 144.445312 607.820312 144.390625 606.648438 C 144.332031 605.480469 144.308594 604.3125 144.308594 603.144531 L 144.308594 90.296875 C 144.308594 89.128906 144.332031 87.960938 144.390625 86.792969 C 144.445312 85.625 144.527344 84.460938 144.640625 83.296875 C 144.753906 82.132812 144.894531 80.972656 145.0625 79.816406 C 145.234375 78.660156 145.429688 77.507812 145.65625 76.363281 C 145.882812 75.214844 146.136719 74.074219 146.417969 72.941406 C 146.699219 71.804688 147.007812 70.679688 147.34375 69.558594 C 147.679688 68.441406 148.046875 67.328125 148.4375 66.226562 C 148.828125 65.125 149.246094 64.035156 149.691406 62.953125 C 150.136719 61.871094 150.605469 60.804688 151.101562 59.746094 C 151.601562 58.6875 152.121094 57.640625 152.671875 56.609375 C 153.21875 55.578125 153.792969 54.558594 154.390625 53.554688 C 154.988281 52.550781 155.613281 51.5625 156.257812 50.585938 C 156.90625 49.613281 157.574219 48.65625 158.269531 47.714844 C 158.960938 46.773438 159.679688 45.851562 160.417969 44.945312 C 161.15625 44.039062 161.917969 43.152344 162.699219 42.285156 C 163.480469 41.414062 164.285156 40.566406 165.109375 39.738281 C 165.933594 38.90625 166.777344 38.097656 167.640625 37.3125 C 168.503906 36.523438 169.386719 35.757812 170.285156 35.011719 C 171.1875 34.265625 172.105469 33.546875 173.042969 32.84375 C 173.980469 32.144531 174.933594 31.46875 175.902344 30.816406 C 176.871094 30.164062 177.855469 29.535156 178.855469 28.929688 C 179.855469 28.324219 180.871094 27.746094 181.898438 27.191406 C 182.929688 26.636719 183.96875 26.105469 185.027344 25.601562 C 186.082031 25.097656 187.148438 24.621094 188.226562 24.167969 C 189.304688 23.714844 190.390625 23.292969 191.492188 22.894531 C 192.589844 22.496094 193.699219 22.125 194.816406 21.777344 C 195.933594 21.433594 197.058594 21.117188 198.191406 20.828125 C 199.324219 20.539062 200.460938 20.28125 201.605469 20.046875 C 202.753906 19.8125 203.902344 19.609375 205.058594 19.429688 C 206.214844 19.253906 207.375 19.105469 208.535156 18.984375 C 209.699219 18.867188 210.863281 18.773438 212.03125 18.710938 C 213.199219 18.648438 214.367188 18.613281 215.535156 18.609375 L 416.5625 18.609375 Z M 630.007812 233.796875 " fill-opacity="1" fill-rule="nonzero"/><g clip-path="url(#c594dafee1)"><path fill="#ff3131" d="M 100.496094 686.664062 C 100.496094 685.128906 100.570312 683.597656 100.722656 682.070312 C 100.871094 680.542969 101.097656 679.027344 101.394531 677.523438 C 101.695312 676.019531 102.066406 674.53125 102.511719 673.0625 C 102.957031 671.59375 103.476562 670.152344 104.0625 668.734375 C 104.648438 667.316406 105.304688 665.929688 106.027344 664.578125 C 106.753906 663.222656 107.539062 661.910156 108.394531 660.632812 C 109.246094 659.355469 110.160156 658.125 111.132812 656.9375 C 112.105469 655.753906 113.136719 654.617188 114.21875 653.53125 C 115.304688 652.445312 116.441406 651.417969 117.628906 650.445312 C 118.8125 649.472656 120.046875 648.558594 121.320312 647.707031 C 122.597656 646.851562 123.914062 646.066406 125.265625 645.339844 C 126.617188 644.617188 128.003906 643.960938 129.421875 643.375 C 130.839844 642.789062 132.285156 642.273438 133.753906 641.824219 C 135.222656 641.378906 136.707031 641.007812 138.214844 640.707031 C 139.71875 640.410156 141.234375 640.183594 142.761719 640.035156 C 144.289062 639.882812 145.820312 639.808594 147.355469 639.808594 L 499.738281 639.222656 C 501.273438 639.222656 502.804688 639.148438 504.332031 638.996094 C 505.859375 638.847656 507.375 638.621094 508.878906 638.324219 C 510.386719 638.023438 511.871094 637.652344 513.339844 637.203125 C 514.808594 636.757812 516.253906 636.242188 517.671875 635.65625 C 519.089844 635.070312 520.472656 634.414062 521.828125 633.691406 C 523.179688 632.964844 524.496094 632.179688 525.773438 631.324219 C 527.046875 630.472656 528.28125 629.558594 529.464844 628.585938 C 530.652344 627.613281 531.789062 626.582031 532.875 625.5 C 533.957031 624.414062 534.988281 623.277344 535.960938 622.089844 C 536.933594 620.90625 537.847656 619.675781 538.699219 618.398438 C 539.554688 617.121094 540.339844 615.808594 541.066406 614.453125 C 541.789062 613.101562 542.445312 611.714844 543.03125 610.296875 C 543.617188 608.878906 544.132812 607.4375 544.582031 605.96875 C 545.027344 604.5 545.398438 603.011719 545.699219 601.507812 C 545.996094 600.003906 546.222656 598.484375 546.371094 596.957031 C 546.523438 595.433594 546.597656 593.902344 546.597656 592.367188 L 546.597656 495.257812 C 546.597656 493.722656 546.523438 492.191406 546.371094 490.664062 C 546.222656 489.136719 545.996094 487.621094 545.699219 486.113281 C 545.398438 484.609375 545.027344 483.121094 544.582031 481.65625 C 544.132812 480.1875 543.617188 478.742188 543.03125 477.324219 C 542.445312 475.90625 541.789062 474.519531 541.066406 473.167969 C 540.339844 471.816406 539.554688 470.5 538.699219 469.222656 C 537.847656 467.949219 536.933594 466.71875 535.960938 465.53125 C 534.988281 464.34375 533.957031 463.207031 532.875 462.125 C 531.789062 461.039062 530.652344 460.007812 529.464844 459.035156 C 528.28125 458.0625 527.046875 457.148438 525.773438 456.296875 C 524.496094 455.445312 523.179688 454.65625 521.828125 453.933594 C 520.472656 453.207031 519.089844 452.554688 517.671875 451.964844 C 516.253906 451.378906 514.808594 450.863281 513.339844 450.417969 C 511.871094 449.972656 510.386719 449.597656 508.878906 449.300781 C 507.375 449 505.859375 448.777344 504.332031 448.625 C 502.804688 448.476562 501.273438 448.398438 499.738281 448.398438 L 147.003906 448.398438 C 145.46875 448.398438 143.9375 448.476562 142.410156 448.625 C 140.882812 448.777344 139.367188 449 137.863281 449.300781 C 136.355469 449.597656 134.871094 449.972656 133.402344 450.417969 C 131.933594 450.863281 130.488281 451.378906 129.070312 451.964844 C 127.652344 452.554688 126.269531 453.207031 124.914062 453.933594 C 123.5625 454.65625 122.246094 455.445312 120.96875 456.296875 C 119.695312 457.148438 118.460938 458.0625 117.277344 459.035156 C 116.089844 460.007812 114.953125 461.039062 113.867188 462.125 C 112.785156 463.207031 111.753906 464.34375 110.78125 465.53125 C 109.808594 466.71875 108.894531 467.949219 108.042969 469.222656 C 107.1875 470.5 106.402344 471.816406 105.675781 473.167969 C 104.953125 474.523438 104.296875 475.90625 103.710938 477.324219 C 103.125 478.742188 102.605469 480.1875 102.160156 481.65625 C 101.714844 483.121094 101.34375 484.609375 101.042969 486.113281 C 100.746094 487.621094 100.519531 489.136719 100.371094 490.664062 C 100.21875 492.191406 100.144531 493.722656 100.144531 495.257812 Z M 100.496094 686.664062 " fill-opacity="1" fill-rule="nonzero"/></g><path fill="#ffffff" d="M 182.148438 571.984375 L 202.0625 571.984375 L 202.0625 591.664062 L 182.148438 591.664062 Z M 182.148438 571.984375 " fill-opacity="1" fill-rule="nonzero"/><path fill="#ffffff" d="M 286.175781 549.492188 C 284.449219 550.785156 282.621094 551.914062 280.691406 552.878906 C 278.761719 553.84375 276.761719 554.632812 274.691406 555.242188 C 272.625 555.851562 270.515625 556.273438 268.371094 556.507812 C 266.226562 556.742188 264.078125 556.785156 261.925781 556.636719 L 241.777344 556.636719 L 241.777344 591.78125 L 221.746094 591.78125 L 221.746094 494.320312 L 263.332031 494.320312 C 265.386719 494.214844 267.429688 494.296875 269.46875 494.570312 C 271.503906 494.84375 273.5 495.300781 275.453125 495.941406 C 277.40625 496.582031 279.285156 497.394531 281.085938 498.382812 C 282.886719 499.371094 284.585938 500.515625 286.175781 501.816406 C 287.707031 503.332031 289.054688 505 290.21875 506.816406 C 291.378906 508.628906 292.332031 510.550781 293.070312 512.574219 C 293.808594 514.597656 294.320312 516.679688 294.597656 518.816406 C 294.878906 520.957031 294.921875 523.097656 294.726562 525.246094 C 294.960938 527.457031 294.945312 529.664062 294.683594 531.875 C 294.421875 534.082031 293.921875 536.234375 293.183594 538.332031 C 292.445312 540.429688 291.484375 542.417969 290.300781 544.300781 C 289.117188 546.183594 287.742188 547.914062 286.175781 549.492188 Z M 270.828125 514.351562 C 269.277344 513.191406 267.578125 512.332031 265.726562 511.769531 C 263.875 511.207031 261.984375 510.972656 260.050781 511.070312 L 241.777344 511.070312 L 241.777344 539.769531 L 260.050781 539.769531 C 262.007812 539.886719 263.914062 539.644531 265.773438 539.035156 C 267.636719 538.429688 269.320312 537.503906 270.828125 536.253906 C 271.523438 535.515625 272.128906 534.710938 272.648438 533.839844 C 273.167969 532.972656 273.585938 532.058594 273.910156 531.097656 C 274.234375 530.136719 274.453125 529.15625 274.566406 528.148438 C 274.675781 527.140625 274.683594 526.132812 274.578125 525.128906 C 274.679688 524.15625 274.671875 523.183594 274.558594 522.214844 C 274.441406 521.246094 274.222656 520.296875 273.898438 519.378906 C 273.574219 518.457031 273.152344 517.582031 272.636719 516.753906 C 272.117188 515.925781 271.515625 515.164062 270.828125 514.46875 Z M 270.828125 514.351562 " fill-opacity="1" fill-rule="nonzero"/><path fill="#ffffff" d="M 367.59375 496.425781 C 370.910156 497.433594 373.980469 498.9375 376.804688 500.941406 C 379.632812 502.945312 382.066406 505.347656 384.113281 508.140625 C 387.476562 513.152344 389.742188 518.617188 390.90625 524.542969 C 392.136719 529.820312 392.761719 535.167969 392.78125 540.589844 C 392.96875 546.320312 392.410156 551.976562 391.097656 557.558594 C 389.785156 563.144531 387.769531 568.457031 385.050781 573.507812 C 384.261719 574.9375 383.378906 576.308594 382.398438 577.617188 C 381.417969 578.929688 380.351562 580.164062 379.199219 581.324219 C 378.046875 582.484375 376.820312 583.558594 375.515625 584.546875 C 374.214844 585.535156 372.851562 586.429688 371.421875 587.226562 C 369.996094 588.027344 368.519531 588.722656 366.996094 589.3125 C 365.472656 589.90625 363.914062 590.390625 362.324219 590.765625 C 360.730469 591.140625 359.121094 591.402344 357.492188 591.554688 C 355.863281 591.703125 354.234375 591.742188 352.601562 591.664062 L 310.894531 591.664062 L 310.894531 494.320312 L 352.601562 494.320312 C 357.699219 494.300781 362.699219 495.003906 367.59375 496.425781 Z M 330.574219 511.1875 L 330.574219 574.796875 L 348.851562 574.796875 C 349.949219 574.835938 351.042969 574.789062 352.128906 574.648438 C 353.21875 574.511719 354.289062 574.285156 355.34375 573.96875 C 356.394531 573.65625 357.414062 573.257812 358.398438 572.777344 C 359.386719 572.292969 360.328125 571.734375 361.222656 571.097656 C 362.117188 570.460938 362.953125 569.753906 363.730469 568.980469 C 364.507812 568.207031 365.21875 567.375 365.859375 566.484375 C 366.503906 565.59375 367.066406 564.65625 367.554688 563.671875 C 368.042969 562.6875 368.445312 561.671875 368.765625 560.621094 C 371.136719 554.636719 372.308594 548.429688 372.28125 541.996094 C 372.554688 537.953125 372.296875 533.941406 371.5 529.96875 C 370.707031 525.996094 369.402344 522.195312 367.59375 518.566406 C 366.515625 517.160156 365.265625 515.921875 363.847656 514.855469 C 362.429688 513.789062 360.898438 512.929688 359.246094 512.28125 C 357.59375 511.628906 355.886719 511.210938 354.121094 511.027344 C 352.359375 510.839844 350.601562 510.894531 348.851562 511.1875 Z M 330.574219 511.1875 " fill-opacity="1" fill-rule="nonzero"/><path fill="#ffffff" d="M 407.425781 494.4375 L 476.425781 494.4375 L 476.425781 511.539062 L 428.042969 511.539062 L 428.042969 533.914062 L 470.917969 533.914062 L 470.917969 550.898438 L 428.042969 550.898438 L 428.042969 591.664062 L 407.425781 591.664062 Z M 407.425781 494.4375 " fill-opacity="1" fill-rule="nonzero"/><path fill="#ffffff" d="M 630.007812 233.796875 L 482.984375 233.796875 C 481.894531 233.789062 480.804688 233.753906 479.714844 233.695312 C 478.625 233.632812 477.539062 233.546875 476.453125 233.429688 C 475.367188 233.316406 474.285156 233.175781 473.207031 233.007812 C 472.128906 232.84375 471.058594 232.648438 469.988281 232.429688 C 468.917969 232.210938 467.855469 231.964844 466.800781 231.691406 C 465.742188 231.421875 464.695312 231.125 463.652344 230.800781 C 462.609375 230.476562 461.574219 230.128906 460.550781 229.753906 C 459.527344 229.382812 458.511719 228.984375 457.503906 228.558594 C 456.5 228.136719 455.503906 227.6875 454.519531 227.21875 C 453.535156 226.746094 452.566406 226.25 451.605469 225.730469 C 450.644531 225.210938 449.699219 224.667969 448.765625 224.101562 C 447.835938 223.535156 446.914062 222.949219 446.011719 222.335938 C 445.105469 221.726562 444.21875 221.09375 443.34375 220.441406 C 442.472656 219.785156 441.617188 219.109375 440.777344 218.414062 C 439.933594 217.71875 439.113281 217.003906 438.308594 216.265625 C 437.503906 215.53125 436.714844 214.773438 435.949219 214 C 435.179688 213.222656 434.429688 212.429688 433.703125 211.621094 C 432.972656 210.808594 432.261719 209.980469 431.574219 209.132812 C 430.886719 208.289062 430.21875 207.425781 429.570312 206.546875 C 428.925781 205.667969 428.300781 204.773438 427.699219 203.863281 C 427.09375 202.953125 426.515625 202.03125 425.957031 201.09375 C 425.398438 200.15625 424.867188 199.203125 424.355469 198.238281 C 423.84375 197.277344 423.355469 196.300781 422.894531 195.3125 C 422.429688 194.324219 421.992188 193.328125 421.574219 192.316406 C 421.160156 191.308594 420.773438 190.289062 420.40625 189.261719 C 420.042969 188.230469 419.703125 187.195312 419.390625 186.152344 C 419.074219 185.105469 418.789062 184.054688 418.527344 182.996094 C 418.261719 181.9375 418.027344 180.871094 417.816406 179.800781 C 417.605469 178.730469 417.421875 177.65625 417.265625 176.574219 C 417.105469 175.496094 416.976562 174.414062 416.871094 173.328125 C 416.765625 172.242188 416.6875 171.152344 416.636719 170.0625 C 416.585938 168.972656 416.5625 167.882812 416.5625 166.792969 L 416.5625 18.609375 Z M 630.007812 233.796875 " fill-opacity="1" fill-rule="nonzero"/><path fill="#ff3131" d="M 459.320312 314.507812 C 448.589844 314.761719 437.96875 315.972656 427.457031 318.136719 C 417.746094 307.152344 408.859375 295.539062 400.792969 283.296875 C 392.726562 271.050781 385.566406 258.300781 379.308594 245.042969 C 391.960938 190.6875 385.636719 183.074219 382.824219 179.441406 C 380.011719 175.8125 375.679688 169.367188 371.109375 169.367188 C 367.851562 169.53125 364.652344 170.039062 361.503906 170.890625 C 360.226562 171.417969 359.023438 172.078125 357.890625 172.863281 C 356.753906 173.652344 355.71875 174.550781 354.777344 175.5625 C 353.839844 176.570312 353.015625 177.671875 352.3125 178.859375 C 351.609375 180.046875 351.042969 181.296875 350.609375 182.605469 C 344.046875 198.65625 353.300781 225.714844 362.324219 246.683594 C 353.28125 282.28125 341.332031 316.878906 326.476562 350.46875 C 290.277344 367.335938 271.414062 383.972656 269.894531 399.316406 C 269.804688 400.363281 269.78125 401.410156 269.832031 402.457031 C 269.882812 403.503906 270.003906 404.542969 270.195312 405.574219 C 270.386719 406.605469 270.644531 407.617188 270.96875 408.617188 C 271.296875 409.613281 271.6875 410.582031 272.144531 411.527344 C 272.601562 412.472656 273.117188 413.378906 273.699219 414.253906 C 274.277344 415.128906 274.910156 415.960938 275.601562 416.75 C 276.292969 417.539062 277.03125 418.28125 277.820312 418.96875 C 278.613281 419.660156 279.445312 420.292969 280.320312 420.871094 C 281.601562 421.9375 283.027344 422.753906 284.597656 423.316406 C 286.167969 423.882812 287.789062 424.160156 289.457031 424.152344 C 297.890625 424.152344 306.089844 417.707031 315.933594 403.769531 C 324.65625 390.757812 332.191406 377.089844 338.542969 362.769531 C 365.539062 350.992188 393.421875 341.929688 422.1875 335.59375 C 424.691406 338.582031 427.449219 341.316406 430.460938 343.792969 C 433.472656 346.273438 436.6875 348.453125 440.101562 350.335938 C 443.515625 352.21875 447.078125 353.773438 450.78125 354.996094 C 454.484375 356.21875 458.269531 357.09375 462.132812 357.613281 C 464.242188 357.609375 466.316406 357.339844 468.359375 356.808594 C 470.402344 356.277344 472.34375 355.5 474.1875 354.476562 C 476.03125 353.449219 477.71875 352.210938 479.246094 350.761719 C 480.777344 349.308594 482.101562 347.6875 483.21875 345.902344 C 483.824219 345.214844 484.378906 344.492188 484.882812 343.730469 C 485.386719 342.96875 485.839844 342.175781 486.234375 341.351562 C 486.628906 340.53125 486.96875 339.683594 487.25 338.8125 C 487.53125 337.945312 487.75 337.058594 487.910156 336.160156 C 488.066406 335.261719 488.164062 334.355469 488.199219 333.441406 C 488.234375 332.527344 488.210938 331.617188 488.121094 330.707031 C 488.03125 329.796875 487.878906 328.898438 487.667969 328.011719 C 487.457031 327.121094 487.183594 326.253906 486.851562 325.402344 C 483.21875 318.136719 474.199219 314.507812 459.320312 314.507812 Z M 290.277344 407.398438 C 285.824219 403.886719 286.058594 401.542969 286.175781 400.722656 C 286.175781 395.335938 294.960938 385.847656 315.230469 374.25 C 299.296875 403.652344 291.097656 407.398438 290.277344 407.398438 Z M 367.945312 186.355469 C 368.53125 186.355469 378.019531 197.015625 369 217.28125 C 368.515625 216.765625 368.058594 216.234375 367.625 215.679688 C 367.1875 215.125 366.78125 214.550781 366.394531 213.960938 C 366.011719 213.367188 365.65625 212.761719 365.328125 212.136719 C 365 211.515625 364.699219 210.878906 364.429688 210.226562 C 364.160156 209.578125 363.917969 208.914062 363.707031 208.242188 C 363.496094 207.570312 363.3125 206.890625 363.164062 206.203125 C 363.015625 205.515625 362.894531 204.820312 362.808594 204.121094 C 362.722656 203.421875 362.664062 202.71875 362.640625 202.015625 C 362.617188 201.3125 362.625 200.609375 362.664062 199.90625 C 362.703125 199.199219 362.773438 198.5 362.878906 197.804688 C 362.980469 197.105469 363.113281 196.414062 363.277344 195.730469 C 363.445312 195.046875 363.640625 194.367188 363.867188 193.703125 C 364.09375 193.035156 364.347656 192.378906 364.632812 191.734375 C 364.917969 191.089844 365.230469 190.460938 365.574219 189.84375 C 365.914062 189.226562 366.285156 188.628906 366.679688 188.046875 C 367.078125 187.460938 367.5 186.898438 367.945312 186.355469 Z M 347.914062 341.214844 C 357.730469 317.40625 366.164062 293.121094 373.21875 268.351562 C 383.578125 287.351562 395.644531 305.195312 409.417969 321.886719 C 388.496094 327 367.996094 333.441406 347.914062 341.214844 Z M 470.21875 337.117188 C 469.457031 337.875 468.625 338.542969 467.714844 339.113281 C 466.804688 339.683594 465.84375 340.148438 464.828125 340.503906 C 463.8125 340.859375 462.773438 341.097656 461.707031 341.214844 C 460.636719 341.335938 459.570312 341.335938 458.503906 341.214844 C 453.464844 341.214844 451.707031 338.285156 443.976562 332.195312 C 449.699219 331.570312 455.4375 331.257812 461.195312 331.257812 C 465.027344 330.84375 468.699219 331.429688 472.207031 333.015625 C 471.699219 334.480469 470.996094 335.847656 470.101562 337.117188 Z M 470.21875 337.117188 " fill-opacity="1" fill-rule="nonzero"/></svg>