<svg xmlns="http://www.w3.org/2000/svg" xmlns:xlink="http://www.w3.org/1999/xlink" width="1024" zoomAndPan="magnify" viewBox="0 0 768 767.999994" height="1024" preserveAspectRatio="xMidYMid meet" version="1.0"><defs><clipPath id="0efff87e95"><path d="M 101.511719 13.523438 L 666.261719 13.523438 L 666.261719 754.523438 L 101.511719 754.523438 Z M 101.511719 13.523438 " clip-rule="nonzero"/></clipPath><clipPath id="50fd7d1a50"><path d="M 489 13.523438 L 666.261719 13.523438 L 666.261719 190 L 489 190 Z M 489 13.523438 " clip-rule="nonzero"/></clipPath><clipPath id="ba550cbf10"><path d="M 489 189 L 666.261719 189 L 666.261719 367 L 489 367 Z M 489 189 " clip-rule="nonzero"/></clipPath></defs><g clip-path="url(#0efff87e95)"><path fill="#2196f3" d="M 613.136719 754.523438 L 154.636719 754.523438 C 125.417969 754.523438 101.734375 730.828125 101.734375 701.597656 L 101.734375 66.453125 C 101.734375 37.21875 125.417969 13.523438 154.636719 13.523438 L 489.695312 13.523438 L 666.039062 189.953125 L 666.039062 701.597656 C 666.039062 730.828125 642.355469 754.523438 613.136719 754.523438 Z M 613.136719 754.523438 " fill-opacity="1" fill-rule="nonzero"/></g><g clip-path="url(#50fd7d1a50)"><path fill="#bbdefb" d="M 666.039062 189.953125 L 489.695312 189.953125 L 489.695312 13.523438 Z M 666.039062 189.953125 " fill-opacity="1" fill-rule="nonzero"/></g><g clip-path="url(#ba550cbf10)"><path fill="#1565c0" d="M 489.695312 189.953125 L 666.039062 366.382812 L 666.039062 189.953125 Z M 489.695312 189.953125 " fill-opacity="1" fill-rule="nonzero"/></g><path fill="#e3f2fd" d="M 225.175781 366.382812 L 542.597656 366.382812 L 542.597656 401.667969 L 225.175781 401.667969 Z M 225.175781 366.382812 " fill-opacity="1" fill-rule="nonzero"/><path fill="#e3f2fd" d="M 225.175781 436.953125 L 542.597656 436.953125 L 542.597656 472.238281 L 225.175781 472.238281 Z M 225.175781 436.953125 " fill-opacity="1" fill-rule="nonzero"/><path fill="#e3f2fd" d="M 225.175781 507.523438 L 542.597656 507.523438 L 542.597656 542.808594 L 225.175781 542.808594 Z M 225.175781 507.523438 " fill-opacity="1" fill-rule="nonzero"/><path fill="#e3f2fd" d="M 225.175781 578.097656 L 401.523438 578.097656 L 401.523438 613.382812 L 225.175781 613.382812 Z M 225.175781 578.097656 " fill-opacity="1" fill-rule="nonzero"/></svg>